<svg width="183" height="128" viewBox="0 0 183 128" fill="none" xmlns="http://www.w3.org/2000/svg">
<path d="M5.29301 18V8.976H0.781014V6.48H12.301V8.976H7.78901V18H5.29301ZM15.7376 18C15.3216 18 14.9376 17.8933 14.5856 17.68C14.2336 17.4667 13.951 17.184 13.7376 16.832C13.5243 16.48 13.4176 16.096 13.4176 15.68V11.04C13.4176 10.624 13.5243 10.24 13.7376 9.888C13.951 9.536 14.2336 9.25333 14.5856 9.04C14.9376 8.82667 15.3216 8.72 15.7376 8.72H20.5056C20.9323 8.72 21.3216 8.82667 21.6736 9.04C22.0256 9.25333 22.303 9.536 22.5056 9.888C22.719 10.24 22.8256 10.624 22.8256 11.04V14.592H15.8656V15.552H22.8256V18H15.7376ZM15.8656 12.448H20.3776V11.168H15.8656V12.448ZM24.5438 18V8.72H35.7118C36.1384 8.72 36.5278 8.82667 36.8798 9.04C37.2318 9.25333 37.5091 9.536 37.7118 9.888C37.9251 10.24 38.0318 10.624 38.0318 11.04V18H35.5998V11.168H32.5278V18H30.0638V11.168H26.9918V18H24.5438ZM39.2781 21.68V8.72H46.3661C46.7928 8.72 47.1821 8.82667 47.5341 9.04C47.8861 9.25333 48.1635 9.536 48.3661 9.888C48.5795 10.24 48.6861 10.624 48.6861 11.04V15.68C48.6861 16.096 48.5795 16.48 48.3661 16.832C48.1635 17.184 47.8861 17.4667 47.5341 17.68C47.1821 17.8933 46.7928 18 46.3661 18H41.7261V21.68H39.2781ZM41.7261 15.552H46.2381V11.168H41.7261V15.552ZM52.1751 18C51.7591 18 51.3751 17.8933 51.0231 17.68C50.6711 17.4667 50.3885 17.184 50.1751 16.832C49.9618 16.48 49.8551 16.096 49.8551 15.68V11.04C49.8551 10.624 49.9618 10.24 50.1751 9.888C50.3885 9.536 50.6711 9.25333 51.0231 9.04C51.3751 8.82667 51.7591 8.72 52.1751 8.72H56.9431C57.3698 8.72 57.7591 8.82667 58.1111 9.04C58.4631 9.25333 58.7405 9.536 58.9431 9.888C59.1565 10.24 59.2631 10.624 59.2631 11.04V14.592H52.3031V15.552H59.2631V18H52.1751ZM52.3031 12.448H56.8151V11.168H52.3031V12.448ZM60.8399 18V11.04C60.8399 10.624 60.9466 10.24 61.1599 9.888C61.3732 9.536 61.6559 9.25333 62.0079 9.04C62.3599 8.82667 62.7492 8.72 63.1759 8.72H68.2959V11.168H63.2879V18H60.8399ZM71.8943 18C71.4676 18 71.0783 17.8933 70.7263 17.68C70.3743 17.4667 70.0916 17.184 69.8783 16.832C69.6756 16.48 69.5743 16.096 69.5743 15.68V12.128H76.5343V11.168H69.5743V8.72H76.6623C77.0889 8.72 77.4783 8.82667 77.8303 9.04C78.1823 9.25333 78.4596 9.536 78.6623 9.888C78.8756 10.24 78.9823 10.624 78.9823 11.04V18H71.8943ZM72.0223 15.552H76.5343V14.272H72.0223V15.552ZM83.0356 18C82.609 18 82.2196 17.8933 81.8676 17.68C81.5156 17.4667 81.233 17.184 81.0196 16.832C80.8063 16.48 80.6996 16.096 80.6996 15.68V5.968H83.1476V8.72H86.5876V11.168H83.1476V15.552H86.5876V18H83.0356ZM90.2384 18C89.8117 18 89.4224 17.8933 89.0704 17.68C88.7184 17.4667 88.4357 17.184 88.2224 16.832C88.0197 16.48 87.9184 16.096 87.9184 15.68V8.72H90.3664V15.552H94.8784V8.72H97.3264V15.68C97.3264 16.096 97.2197 16.48 97.0064 16.832C96.8037 17.184 96.5264 17.4667 96.1744 17.68C95.8224 17.8933 95.4331 18 95.0064 18H90.2384ZM99.0274 18V11.04C99.0274 10.624 99.1341 10.24 99.3474 9.888C99.5607 9.536 99.8434 9.25333 100.195 9.04C100.547 8.82667 100.937 8.72 101.363 8.72H106.483V11.168H101.475V18H99.0274ZM109.91 18C109.494 18 109.11 17.8933 108.758 17.68C108.406 17.4667 108.123 17.184 107.91 16.832C107.696 16.48 107.59 16.096 107.59 15.68V11.04C107.59 10.624 107.696 10.24 107.91 9.888C108.123 9.536 108.406 9.25333 108.758 9.04C109.11 8.82667 109.494 8.72 109.91 8.72H114.678C115.104 8.72 115.494 8.82667 115.846 9.04C116.198 9.25333 116.475 9.536 116.678 9.888C116.891 10.24 116.998 10.624 116.998 11.04V14.592H110.038V15.552H116.998V18H109.91ZM110.038 12.448H114.55V11.168H110.038V12.448Z" fill="white"/>
<path d="M2.09501 71V66.934H20.525V71H2.09501ZM13.343 54.432H20.525V58.498H13.343V65.642H9.27701V58.498H2.09501V54.432H9.27701V47.212H13.343V54.432ZM29.1611 71C28.1478 71 27.2231 70.7467 26.3871 70.24C25.5511 69.7333 24.8798 69.062 24.3731 68.226C23.8664 67.39 23.6131 66.478 23.6131 65.49V63.362H29.4271V65.186H44.6651V60.056H23.6131V43.64H50.4791V49.454H29.4271V54.204H44.9311C45.9444 54.204 46.8691 54.4573 47.7051 54.964C48.5411 55.4453 49.2124 56.104 49.7191 56.94C50.2258 57.776 50.4791 58.7007 50.4791 59.714V65.49C50.4791 66.478 50.2258 67.39 49.7191 68.226C49.2124 69.062 48.5411 69.7333 47.7051 70.24C46.8691 70.7467 45.9444 71 44.9311 71H29.1611ZM54.2821 76.054V65.604H60.0961V70.392C60.0961 71.304 59.8427 72.1527 59.3361 72.938C58.8294 73.7233 58.1327 74.3947 57.2461 74.952C56.3594 75.5093 55.3714 75.8767 54.2821 76.054ZM68.4243 71C67.411 71 66.4863 70.7467 65.6503 70.24C64.8143 69.7333 64.143 69.062 63.6363 68.226C63.1296 67.39 62.8763 66.478 62.8763 65.49V63.362H68.6903V65.186H83.9283V60.056H62.8763V43.64H89.7423V49.454H68.6903V54.204H84.1943C85.2076 54.204 86.1323 54.4573 86.9683 54.964C87.8043 55.4453 88.4756 56.104 88.9823 56.94C89.489 57.776 89.7423 58.7007 89.7423 59.714V65.49C89.7423 66.478 89.489 67.39 88.9823 68.226C88.4756 69.062 87.8043 69.7333 86.9683 70.24C86.1323 70.7467 85.2076 71 84.1943 71H68.4243ZM99.2073 71C98.1939 71 97.2693 70.7213 96.4333 70.164C95.5973 69.5813 94.9259 68.8467 94.4193 67.96C93.9126 67.048 93.6593 66.098 93.6593 65.11V49.302C93.6593 48.2887 93.9126 47.3513 94.4193 46.49C94.9259 45.6287 95.5973 44.9447 96.4333 44.438C97.2693 43.906 98.1939 43.64 99.2073 43.64H114.977C115.991 43.64 116.915 43.906 117.751 44.438C118.587 44.9447 119.259 45.6287 119.765 46.49C120.272 47.3513 120.525 48.2887 120.525 49.302V65.11C120.525 66.098 120.272 67.048 119.765 67.96C119.259 68.8467 118.587 69.5813 117.751 70.164C116.915 70.7213 115.991 71 114.977 71H99.2073ZM102.589 64.806H114.711V54.622L102.589 64.806ZM99.4733 59.79L111.595 49.606H99.4733V59.79ZM130.139 71C129.125 71 128.201 70.7213 127.365 70.164C126.529 69.5813 125.857 68.8467 125.351 67.96C124.844 67.048 124.591 66.098 124.591 65.11V49.302C124.591 48.2887 124.844 47.3513 125.351 46.49C125.857 45.6287 126.529 44.9447 127.365 44.438C128.201 43.906 129.125 43.64 130.139 43.64H145.909C146.922 43.64 147.847 43.906 148.683 44.438C149.519 44.9447 150.19 45.6287 150.697 46.49C151.203 47.3513 151.457 48.2887 151.457 49.302V65.11C151.457 66.098 151.203 67.048 150.697 67.96C150.19 68.8467 149.519 69.5813 148.683 70.164C147.847 70.7213 146.922 71 145.909 71H130.139ZM133.521 64.806H145.643V54.622L133.521 64.806ZM130.405 59.79L142.527 49.606H130.405V59.79ZM160.614 57.966C159.601 57.966 158.676 57.7127 157.84 57.206C157.004 56.6993 156.333 56.028 155.826 55.192C155.319 54.356 155.066 53.4313 155.066 52.418V49.682C155.066 48.6687 155.319 47.744 155.826 46.908C156.333 46.072 157.004 45.4133 157.84 44.932C158.676 44.4253 159.601 44.172 160.614 44.172H163.692C164.68 44.172 165.592 44.4253 166.428 44.932C167.264 45.4133 167.935 46.072 168.442 46.908C168.949 47.744 169.202 48.6687 169.202 49.682V52.418C169.202 53.4313 168.949 54.356 168.442 55.192C167.935 56.028 167.264 56.6993 166.428 57.206C165.592 57.7127 164.68 57.966 163.692 57.966H160.614ZM160.196 52.798H164.072V49.302H160.196V52.798ZM8.21301 119C7.17435 119 6.22435 118.747 5.36301 118.24C4.52701 117.733 3.85568 117.062 3.34901 116.226C2.84235 115.365 2.58901 114.415 2.58901 113.376V97.264C2.58901 96.2253 2.84235 95.288 3.34901 94.452C3.85568 93.5907 4.52701 92.9067 5.36301 92.4C6.22435 91.8933 7.17435 91.64 8.21301 91.64H29.873V97.568H9.73301C9.32768 97.568 9.01101 97.6693 8.78301 97.872C8.58035 98.0747 8.47901 98.3913 8.47901 98.822V111.818C8.47901 112.223 8.58035 112.54 8.78301 112.768C9.01101 112.971 9.32768 113.072 9.73301 113.072H29.873V119H8.21301ZM38.024 119C37.036 119 36.124 118.747 35.288 118.24C34.452 117.733 33.7807 117.062 33.274 116.226C32.7673 115.39 32.514 114.478 32.514 113.49V102.47C32.514 101.482 32.7673 100.57 33.274 99.734C33.7807 98.898 34.452 98.2267 35.288 97.72C36.124 97.2133 37.036 96.96 38.024 96.96H49.348C50.3613 96.96 51.286 97.2133 52.122 97.72C52.958 98.2267 53.6167 98.898 54.098 99.734C54.6047 100.57 54.858 101.482 54.858 102.47V110.906H38.328V113.186H54.858V119H38.024ZM38.328 105.814H49.044V102.774H38.328V105.814ZM62.6477 119C61.6597 119 60.7477 118.747 59.9117 118.24C59.0757 117.733 58.4044 117.062 57.8977 116.226C57.391 115.39 57.1377 114.478 57.1377 113.49V89.702H62.9897V113.186H67.4357V119H62.6477ZM74.5385 119C73.5505 119 72.6385 118.747 71.8025 118.24C70.9665 117.733 70.2951 117.062 69.7885 116.226C69.2818 115.39 69.0285 114.478 69.0285 113.49V112.388H74.8425V113.186H85.5585V110.906H74.5385C73.5505 110.906 72.6385 110.653 71.8025 110.146C70.9665 109.639 70.2951 108.968 69.7885 108.132C69.2818 107.296 69.0285 106.384 69.0285 105.396V102.47C69.0285 101.482 69.2818 100.57 69.7885 99.734C70.2951 98.898 70.9665 98.2267 71.8025 97.72C72.6385 97.2133 73.5505 96.96 74.5385 96.96H85.8625C86.8758 96.96 87.8005 97.2133 88.6365 97.72C89.4725 98.2267 90.1438 98.898 90.6505 99.734C91.1571 100.57 91.4105 101.482 91.4105 102.47V103.572H85.5585V102.774H74.8425V105.054H85.8625C86.8758 105.054 87.8005 105.307 88.6365 105.814C89.4725 106.321 90.1438 106.992 90.6505 107.828C91.1571 108.664 91.4105 109.576 91.4105 110.564V113.49C91.4105 114.478 91.1571 115.39 90.6505 116.226C90.1438 117.062 89.4725 117.733 88.6365 118.24C87.8005 118.747 86.8758 119 85.8625 119H74.5385ZM94.4712 119V96.96H100.285V119H94.4712ZM94.4712 95.592V89.74H100.285V95.592H94.4712ZM107.943 119C106.929 119 106.005 118.747 105.169 118.24C104.333 117.733 103.661 117.062 103.155 116.226C102.673 115.39 102.433 114.478 102.433 113.49V96.96H108.247V113.186H118.963V96.96H124.777V113.49C124.777 114.478 124.523 115.39 124.017 116.226C123.535 117.062 122.877 117.733 122.041 118.24C121.205 118.747 120.28 119 119.267 119H107.943ZM132.561 119C131.573 119 130.661 118.747 129.825 118.24C128.989 117.733 128.318 117.062 127.811 116.226C127.305 115.39 127.051 114.478 127.051 113.49V112.388H132.865V113.186H143.581V110.906H132.561C131.573 110.906 130.661 110.653 129.825 110.146C128.989 109.639 128.318 108.968 127.811 108.132C127.305 107.296 127.051 106.384 127.051 105.396V102.47C127.051 101.482 127.305 100.57 127.811 99.734C128.318 98.898 128.989 98.2267 129.825 97.72C130.661 97.2133 131.573 96.96 132.561 96.96H143.885C144.899 96.96 145.823 97.2133 146.659 97.72C147.495 98.2267 148.167 98.898 148.673 99.734C149.18 100.57 149.433 101.482 149.433 102.47V103.572H143.581V102.774H132.865V105.054H143.885C144.899 105.054 145.823 105.307 146.659 105.814C147.495 106.321 148.167 106.992 148.673 107.828C149.18 108.664 149.433 109.576 149.433 110.564V113.49C149.433 114.478 149.18 115.39 148.673 116.226C148.167 117.062 147.495 117.733 146.659 118.24C145.823 118.747 144.899 119 143.885 119H132.561Z" fill="white"/>
</svg>
