<svg width="1440" height="528" viewBox="0 0 1440 528" fill="none" xmlns="http://www.w3.org/2000/svg">
<path d="M1286.75 -483.014C1278.63 -506.761 1269.07 -529.99 1258.12 -552.573C1247.24 -575.155 1352.48 -683.223 1338.77 -704.192C1328.69 -719.717 1200.46 -648.545 1189.17 -663.868C1172.73 -685.142 1154.95 -705.345 1135.94 -724.354C1124.65 -735.645 1210.74 -907.829 1198.85 -918.313C1167.39 -944.927 1035.53 -807.019 999.243 -827.181C981.097 -837.262 986.54 -931.217 967.386 -939.483C952.265 -946.137 912.344 -867.101 896.416 -872.545C880.488 -877.989 860.931 -883.433 842.785 -887.868C831.897 -890.489 838.551 -1031.83 827.462 -1033.84C807.3 -1037.67 766.976 -901.175 745.604 -902.99C730.281 -903.998 714.756 -904.603 699.029 -904.603C678.867 -904.603 645.6 -1029.61 626.648 -1027.79C590.154 -1024.37 569.589 -892.102 535.112 -882.626C514.621 -876.937 494.432 -870.207 474.626 -862.464C453.254 -854.198 381.275 -958.839 361.113 -948.153C337.322 -935.854 365.549 -807.019 343.976 -792.703C333.088 -785.244 322.402 -777.38 312.12 -769.114C301.837 -760.847 192.357 -827.382 181.469 -817.503C161.307 -798.752 239.133 -701.571 221.793 -680.199C208.89 -664.674 196.591 -648.343 185.3 -631.609C178.848 -622.132 -3.82003 -741.895 -9.66703 -732.419C-18.9416 -717.096 149.412 -572.332 141.548 -556.404C133.685 -540.476 126.225 -523.137 119.572 -505.999C114.128 -491.885 6.86587 -503.579 2.43021 -488.861C-2.00544 -474.143 95.7806 -430.391 92.1514 -414.06C88.5222 -397.729 -34.8696 -406.398 -37.0874 -388.454C-38.7004 -376.559 80.659 -337.041 79.8525 -324.742C79.0461 -312.443 78.4412 -297.927 78.4412 -284.418C78.4412 -276.152 -34.4664 -250.949 -34.0631 -242.682C-34.0631 -226.754 81.0622 -227.964 82.8768 -212.439C84.2882 -200.141 86.1028 -187.842 88.119 -175.744C91.3449 -158.203 -69.1451 -77.1519 -64.5078 -60.0142C-60.8787 -46.7072 107.273 -97.1123 111.91 -84.007C114.531 -76.1437 117.354 -68.4823 120.177 -60.8207C125.822 -46.5056 131.871 -32.3921 138.323 -18.6819C144.774 -4.97174 30.4555 68.4181 38.9235 82.1284C44.9722 92.6126 174.413 46.2399 181.268 56.5225C190.341 70.0311 199.817 83.338 209.898 96.8466C219.979 110.355 148.202 215.601 160.702 228.707C173.203 241.812 267.36 161.164 279.054 171.85C295.405 186.954 312.569 201.156 330.467 214.392C335.709 218.222 290.143 368.228 294.578 371.857C327.644 394.842 415.551 268.426 452.447 284.555C467.569 291.209 483.295 297.258 499.022 302.701C514.748 308.145 487.126 447.263 501.441 450.892C523.216 456.538 585.315 325.686 608.099 329.92C638.333 334.425 668.864 336.649 699.433 336.574C724.434 336.574 767.177 518.032 791.372 515.814C803.066 514.403 796.211 329.114 807.501 327.097C827.663 323.67 845.608 319.436 864.157 314.395C873.431 311.774 946.62 427.504 955.692 424.48C973.637 418.835 926.659 293.628 943.797 286.37C964.861 277.333 985.393 267.101 1005.29 255.724C1038.56 236.973 1146.43 309.153 1174.85 284.555C1187.96 273.466 1124.85 167.817 1137.15 155.518C1153.43 139.27 1168.84 122.176 1183.32 104.307C1195.62 88.9835 1407.52 148.865 1418.41 132.332C1432.12 112.17 1244.21 14.1822 1255.3 -8.80255C1273.25 -44.929 1287.57 -82.7508 1298.04 -121.71C1302.48 -137.235 1427.48 -113.645 1430.71 -129.977C1435.15 -153.768 1316.79 -217.681 1318.41 -242.481C1318.41 -256.191 1319.82 -270.304 1319.82 -284.216C1319.82 -313.653 1460.95 -366.477 1457.93 -394.704C1454.91 -416.278 1306.51 -413.657 1301.47 -435.028C1297.04 -450.553 1292.2 -466.885 1286.75 -483.014Z" fill="#FFDE3E"/>
<path d="M445.59 62.9734C358.691 14.5845 290.745 -65.0556 204.855 -114.654C228.103 -46.5211 265.178 16.0739 313.754 69.2056C362.33 122.337 421.36 164.86 487.142 194.107C552.924 223.354 624.039 238.694 696.028 239.166C768.017 239.638 839.327 225.231 905.486 196.85C748.222 205.721 583.498 153.098 445.59 62.9734Z" fill="#FFBE06"/>
<path d="M1203.48 -146.51C928.876 26.6819 541.966 -5.37585 267.561 -247.321C241.753 -267.483 210.3 -266.273 176.831 -262.039C178.733 -211.622 188.04 -161.758 204.453 -114.049C290.344 -64.4507 358.29 15.1895 445.188 63.5785C583.097 152.695 747.619 206.326 905.085 197.454C977.487 166.251 1041.92 119.118 1093.58 59.5646C1145.25 0.011322 1182.81 -70.4283 1203.48 -146.51Z" fill="#FFC533"/>
<path d="M267.964 -247.925C542.37 -5.98029 929.28 26.6823 1203.89 -147.115C1231.11 -247.333 1227.88 -353.387 1194.61 -451.763C1005.9 -329.581 813.549 -236.029 578.46 -336.638C455.068 -381.599 374.016 -512.25 251.229 -552.574C202.342 -471.457 176.546 -378.524 176.63 -283.813C176.63 -276.757 176.63 -269.902 176.63 -263.651C210.704 -266.877 242.157 -267.281 267.964 -247.925Z" fill="#FFDE3E"/>
<path opacity="0.5" d="M376.838 -212.239C369.58 -212.239 289.94 -171.915 289.94 -171.915C289.94 -171.915 244.373 -153.567 260.301 -110.219C276.229 -66.8706 278.649 -25.9416 312.924 6.11606C347.2 38.1738 331.07 122.451 406.476 95.0308C481.882 67.6104 567.773 49.4645 529.667 6.11606C504.304 -27.2389 470.37 -53.0904 431.477 -68.6852C376.838 -95.904 391.153 -123.324 408.694 -143.89C426.235 -164.455 490.955 -63.2414 522.811 -86.8311C554.668 -110.421 603.46 -146.107 579.87 -159.818C556.28 -173.528 552.45 -171.31 502.246 -179.98C452.043 -188.649 445.187 -216.675 376.838 -212.239Z" fill="#FF7415"/>
<path opacity="0.5" d="M525.032 -52.3526C534.137 -61.6891 546.31 -67.418 559.308 -68.4823C571.592 -71.8583 584.454 -72.5795 597.039 -70.598C609.624 -68.6164 621.642 -63.9774 632.294 -56.9899C666.57 -36.8278 662.134 -9.00423 705.483 -6.78641C748.831 -4.56858 773.832 -20.4966 806.293 -6.78641C838.754 6.9238 886.941 22.8518 863.352 79.9104C839.762 136.969 808.511 196.246 765.162 200.883C721.814 205.52 621.407 194.028 587.131 198.665C552.856 203.302 495.797 166.607 493.579 143.824C491.362 121.041 518.58 100.476 568.985 91.4028C619.391 82.3299 636.932 48.0544 598.624 20.634C560.316 -6.78639 527.855 -29.5695 523.218 -34.2068C518.58 -38.8441 529.669 -45.4975 525.032 -52.3526Z" fill="#FF7415"/>
<path opacity="0.5" d="M908.512 -102.557C890.03 -92.0198 874.391 -77.1419 862.946 -59.2081C846.816 -31.9893 839.961 -20.4969 867.381 6.92346C894.802 34.3439 858.308 59.3448 899.439 66.1999C916.812 68.6962 934.515 67.5473 951.42 62.8264C968.325 58.1055 984.062 49.916 997.628 38.7796C1015.77 22.8515 1091.18 -36.4249 1052.27 -41.8687C1013.35 -47.3124 997.628 -14.4483 970.208 -37.2314C950.378 -56.221 934.124 -78.6213 922.222 -103.363L908.512 -102.557Z" fill="#FF7415"/>
<path opacity="0.5" d="M880.892 100.475L853.471 148.46C853.471 148.46 794.195 205.519 837.543 198.664C876.237 194.954 913.251 181.039 944.806 158.34C979.081 133.137 1049.85 99.0634 1054.49 73.8608C1059.12 48.6583 1029.28 46.4404 990.573 64.7879C951.862 83.1354 933.515 112.774 917.385 105.112C901.256 97.4504 908.514 100.475 880.892 100.475Z" fill="#FF7415"/>
<path opacity="0.5" d="M1088.76 -41.0617C1078.53 -30.7564 1070.74 -18.2851 1065.98 -4.56833C1059.41 9.78274 1058.13 25.9928 1062.35 41.1996C1065.29 42.9508 1068.54 44.1053 1071.93 44.5971C1075.31 45.0888 1078.76 44.9081 1082.07 44.0654C1085.39 43.2226 1088.5 41.7343 1091.24 39.6857C1093.98 37.6371 1096.29 35.0684 1098.04 32.1266C1111.75 9.34348 1143.6 -20.2947 1143.6 -34.0049C1143.6 -47.7151 1111.75 -54.167 1111.75 -54.167L1088.76 -41.0617Z" fill="#FF7415"/>
<path d="M5.85818 -31.3842C-8.86012 -19.6902 7.67277 0.6735 26.0202 4.30267C34.4724 5.41381 43.0664 4.1101 50.8088 0.542206C58.5511 -3.02569 65.1255 -8.71205 69.7719 -15.8594C78.8448 -30.5777 78.4416 -53.9657 56.6666 -51.3446C38.7478 -47.531 21.5812 -40.787 5.85818 -31.3842Z" fill="#FF8500"/>
<path d="M167.15 306.128C157.472 332.137 194.167 345.243 220.378 335.565C231.908 330.584 241.804 322.459 248.935 312.119C256.065 301.78 260.143 289.643 260.702 277.095C260.702 251.288 242.153 222.053 216.547 242.013C196.792 260.636 180.118 282.277 167.15 306.128Z" fill="#FF8500"/>
<path opacity="0.5" d="M189.131 309.557C202.032 285.661 218.713 264.01 238.528 245.441C241.165 243.359 244.084 241.662 247.198 240.401C245.189 238.347 242.79 236.714 240.141 235.6C237.492 234.485 234.648 233.911 231.774 233.911C228.9 233.911 226.056 234.485 223.407 235.6C220.759 236.714 218.359 238.347 216.35 240.401C196.482 258.921 179.793 280.582 166.953 304.516C159.291 324.678 179.857 336.977 201.632 336.977C198.911 336.139 196.399 334.733 194.261 332.854C192.123 330.975 190.407 328.664 189.226 326.073C188.045 323.483 187.426 320.672 187.41 317.825C187.393 314.978 187.98 312.161 189.131 309.557Z" fill="#FFFA94"/>
<path d="M614.549 435.368C618.581 449.683 638.542 444.037 647.01 431.537C650.57 425.857 652.458 419.289 652.458 412.585C652.458 405.881 650.57 399.313 647.01 393.632C638.945 382.342 621.606 375.487 616.968 392.221C613.845 406.379 613.028 420.949 614.549 435.368Z" fill="#FF8500"/>
<path opacity="0.5" d="M625.233 429.923C623.415 415.556 623.891 400.992 626.644 386.776C627.141 385.062 627.889 383.432 628.862 381.937C627.35 381.679 625.803 381.726 624.31 382.075C622.817 382.425 621.409 383.069 620.169 383.971C618.929 384.873 617.882 386.014 617.089 387.326C616.297 388.639 615.775 390.097 615.555 391.615C612.755 406.03 612.278 420.8 614.144 435.366C617.168 446.455 629.87 445.447 639.346 438.592C637.848 439.043 636.272 439.172 634.72 438.971C633.169 438.769 631.678 438.241 630.345 437.423C629.012 436.604 627.867 435.512 626.986 434.22C626.105 432.927 625.508 431.463 625.233 429.923Z" fill="#FFFA94"/>
<path d="M680.883 517.629C684.714 531.944 704.674 526.097 713.142 513.798C716.697 508.079 718.581 501.479 718.581 494.745C718.581 488.01 716.697 481.411 713.142 475.691C705.077 464.602 687.939 457.546 683.101 474.28C679.968 488.507 679.219 503.156 680.883 517.629Z" fill="#FF8500"/>
<path opacity="0.5" d="M691.365 512.185C689.579 497.81 690.123 483.24 692.978 469.038C693.346 467.218 694.102 465.499 695.196 463.998C693.669 463.741 692.107 463.795 690.602 464.157C689.097 464.519 687.681 465.181 686.438 466.103C685.196 467.026 684.152 468.19 683.37 469.526C682.588 470.862 682.085 472.342 681.889 473.877C679.034 488.079 678.49 502.649 680.276 517.024C683.3 528.315 696.204 527.105 705.68 520.452C702.686 521.252 699.496 520.831 696.812 519.281C694.127 517.731 692.168 515.179 691.365 512.185Z" fill="#FFFA94"/>
<path d="M547.407 516.015C547.407 530.935 567.569 530.935 579.465 521.459C584.401 516.894 587.947 511.028 589.695 504.536C591.443 498.044 591.322 491.19 589.344 484.764C584.707 471.658 569.182 460.368 560.916 474.884C554.221 487.775 549.659 501.665 547.407 516.015Z" fill="#FF8500"/>
<path opacity="0.5" d="M558.3 513.999C560.595 499.943 565.085 486.336 571.607 473.675C572.661 472.199 573.879 470.846 575.236 469.642C573.85 468.967 572.343 468.578 570.804 468.498C569.265 468.417 567.725 468.647 566.277 469.174C564.828 469.701 563.501 470.513 562.373 471.564C561.245 472.614 560.339 473.88 559.711 475.288C553.197 487.97 548.643 501.565 546.202 515.612C546.202 527.104 558.703 529.725 569.59 525.693C568.073 525.694 566.571 525.389 565.174 524.796C563.778 524.204 562.514 523.336 561.461 522.245C560.407 521.153 559.584 519.86 559.04 518.444C558.497 517.027 558.245 515.515 558.3 513.999Z" fill="#FFFA94"/>
<path d="M-34.4655 144.226C-43.74 153.098 -31.2396 166.203 -18.3359 167.413C-12.4953 167.734 -6.68363 166.389 -1.57874 163.533C3.52614 160.677 7.71383 156.428 10.4959 151.283C15.9396 140.597 14.1251 124.669 -0.59325 127.693C-12.7011 131.343 -24.1394 136.926 -34.4655 144.226Z" fill="#FF8500"/>
<path opacity="0.5" d="M-26.401 150.276C-16.0058 142.653 -4.4255 136.795 7.87452 132.937C9.40675 132.648 10.9796 132.648 12.5118 132.937C11.6019 130.424 9.73157 128.376 7.31195 127.242C4.89233 126.107 2.12138 125.98 -0.391918 126.888C-12.5027 130.435 -23.9467 135.953 -34.2642 143.22C-41.5225 150.075 -35.4739 159.551 -26.401 163.382C-28.0446 161.595 -28.9568 159.256 -28.9568 156.829C-28.9568 154.401 -28.0446 152.063 -26.401 150.276Z" fill="#FFFA94"/>
<path d="M1449.06 94.0244C1461.96 94.0244 1462.16 76.2818 1453.89 66.2007C1449.99 61.8881 1444.95 58.7669 1439.35 57.1972C1433.75 55.6275 1427.82 55.6734 1422.24 57.3295C1410.95 61.1603 1400.87 73.6608 1413.37 81.9272C1424.55 87.83 1436.59 91.9136 1449.06 94.0244Z" fill="#FF8500"/>
<path opacity="0.5" d="M1447.24 83.9418C1434.87 82.0548 1422.89 78.1737 1411.76 72.4494C1410.34 71.719 1409.1 70.6866 1408.13 69.425C1407.55 70.6282 1407.22 71.9343 1407.15 73.2674C1407.08 74.6005 1407.27 75.9341 1407.72 77.1908C1408.17 78.4475 1408.87 79.6022 1409.77 80.5881C1410.67 81.5739 1411.76 82.3712 1412.97 82.9337C1424.05 88.938 1436.03 93.0923 1448.45 95.2325C1458.53 95.2325 1460.95 84.5466 1457.53 75.0705C1457.32 77.603 1456.13 79.9528 1454.2 81.6125C1452.28 83.2723 1449.78 84.1089 1447.24 83.9418Z" fill="#FFFA94"/>
<path d="M1441.8 30.7153C1449.66 30.7153 1449.86 19.8278 1444.82 13.7792C1442.38 10.9748 1439.16 8.95985 1435.57 7.99052C1431.98 7.02119 1428.18 7.14123 1424.66 8.3354C1417.8 10.5532 1411.76 18.2148 1419.42 23.2554C1426.4 27.0054 1433.97 29.5288 1441.8 30.7153Z" fill="#FF8500"/>
<path opacity="0.5" d="M1440.79 24.4645C1433.23 23.19 1425.94 20.669 1419.22 17.0045C1418.4 16.502 1417.65 15.8916 1417 15.1899C1416.3 16.6635 1416.2 18.3534 1416.73 19.8981C1417.25 21.4429 1418.36 22.72 1419.82 23.4564C1426.62 27.1113 1433.98 29.6311 1441.6 30.9163C1447.64 30.9163 1449.06 24.4645 1447.04 18.6175C1447.04 19.4205 1446.88 20.2153 1446.56 20.9523C1446.24 21.6893 1445.77 22.3527 1445.19 22.9013C1444.6 23.4499 1443.91 23.8718 1443.15 24.1407C1442.39 24.4097 1441.59 24.5199 1440.79 24.4645Z" fill="#FFFA94"/>
<path d="M1322.03 310.363C1327.68 315.806 1335.34 307.741 1335.74 299.878C1335.76 296.305 1334.77 292.8 1332.87 289.767C1330.98 286.735 1328.27 284.299 1325.06 282.741C1318.41 279.918 1308.73 281.329 1310.95 290.201C1313.58 297.453 1317.32 304.254 1322.03 310.363Z" fill="#FF8500"/>
<path opacity="0.5" d="M1325.46 304.919C1320.71 298.838 1316.96 292.03 1314.37 284.757C1314.29 283.818 1314.29 282.873 1314.37 281.934C1313.63 282.242 1312.95 282.697 1312.37 283.272C1311.8 283.847 1311.36 284.531 1311.05 285.284C1310.75 286.036 1310.61 286.841 1310.62 287.651C1310.64 288.461 1310.82 289.259 1311.15 289.999C1313.63 297.277 1317.31 304.09 1322.04 310.161C1326.47 314.395 1332.12 310.161 1334.54 304.717C1334 305.404 1333.32 305.963 1332.55 306.354C1331.77 306.745 1330.92 306.958 1330.05 306.977C1329.18 306.996 1328.32 306.822 1327.52 306.466C1326.73 306.109 1326.03 305.581 1325.46 304.919Z" fill="#FFFA94"/>
<path d="M1028.88 335.565C1034.52 341.21 1041.98 333.146 1042.39 325.081C1042.37 321.542 1041.35 318.079 1039.46 315.086C1037.58 312.093 1034.89 309.688 1031.7 308.145C1025.05 305.322 1015.37 306.733 1017.79 315.604C1020.4 322.807 1024.14 329.546 1028.88 335.565Z" fill="#FF8500"/>
<path opacity="0.5" d="M1032.11 330.323C1027.38 324.253 1023.7 317.439 1021.22 310.161C1021.03 309.229 1021.03 308.27 1021.22 307.338C1020.45 307.626 1019.75 308.067 1019.16 308.634C1018.57 309.201 1018.1 309.882 1017.78 310.636C1017.45 311.39 1017.29 312.202 1017.29 313.021C1017.3 313.841 1017.46 314.651 1017.79 315.403C1020.38 322.677 1024.12 329.485 1028.88 335.565C1033.32 339.799 1038.76 335.565 1041.18 330.121C1040.65 330.808 1039.97 331.367 1039.19 331.758C1038.41 332.149 1037.56 332.362 1036.69 332.381C1035.82 332.401 1034.96 332.226 1034.17 331.87C1033.37 331.514 1032.67 330.985 1032.11 330.323Z" fill="#FFFA94"/>
<path d="M1046.02 396.052C1032.51 381.737 1012.55 400.89 1010.53 420.649C1010.15 429.56 1012.28 438.399 1016.66 446.167C1021.04 453.934 1027.51 460.321 1035.33 464.602C1051.67 472.667 1075.66 470.046 1071.22 447.465C1065.66 429.076 1057.15 411.712 1046.02 396.052Z" fill="#FF8500"/>
<path opacity="0.5" d="M1036.95 408.954C1048.15 424.601 1056.73 441.966 1062.35 460.367C1062.84 462.694 1062.84 465.097 1062.35 467.424C1064.37 466.826 1066.24 465.807 1067.83 464.436C1069.43 463.065 1070.71 461.371 1071.61 459.467C1072.5 457.563 1072.99 455.492 1073.02 453.388C1073.06 451.285 1072.65 449.197 1071.83 447.262C1066.28 428.804 1057.77 411.371 1046.62 395.647C1036.14 384.558 1021.83 393.631 1014.97 407.543C1016.46 406.107 1018.24 404.997 1020.18 404.285C1022.13 403.573 1024.2 403.274 1026.27 403.406C1028.34 403.539 1030.35 404.101 1032.19 405.056C1034.03 406.011 1035.65 407.339 1036.95 408.954Z" fill="#FFFA94"/>
<path d="M1258.33 181.931C1240.78 172.858 1228.28 197.456 1232.92 216.811C1235.41 225.359 1240.27 233.024 1246.95 238.914C1253.62 244.804 1261.83 248.675 1270.62 250.078C1288.77 252.498 1310.95 241.812 1299.05 222.255C1287.71 206.727 1273.97 193.114 1258.33 181.931Z" fill="#FF8500"/>
<path opacity="0.5" d="M1253.89 197.051C1269.41 208.239 1283.02 221.855 1294.21 237.375C1295.33 239.443 1296.27 241.601 1297.03 243.827C1298.62 242.574 1299.94 241.015 1300.91 239.242C1301.89 237.47 1302.49 235.521 1302.7 233.509C1302.91 231.498 1302.71 229.465 1302.12 227.532C1301.52 225.599 1300.55 223.804 1299.25 222.254C1288.1 206.705 1274.48 193.084 1258.93 181.93C1245.42 174.671 1234.93 188.18 1233.12 203.503C1234.01 201.671 1235.27 200.041 1236.81 198.714C1238.36 197.387 1240.16 196.39 1242.11 195.786C1244.05 195.181 1246.1 194.982 1248.13 195.199C1250.15 195.417 1252.11 196.047 1253.89 197.051Z" fill="#FFFA94"/>
<path opacity="0.2" d="M855.083 -781.01C877.843 -703.087 882.144 -620.933 867.646 -541.059C853.147 -461.185 820.247 -385.784 771.551 -320.831C722.856 -255.878 659.704 -203.158 587.099 -166.846C514.493 -130.534 434.429 -111.63 353.249 -111.63C303.676 -111.29 254.311 -118.08 206.671 -131.792C232.262 -44.7468 280.065 34.1401 345.38 97.113C410.696 160.086 491.276 204.977 579.197 227.373C667.118 249.768 759.354 248.897 846.837 224.846C934.32 200.794 1014.04 154.39 1078.15 90.1951C1142.27 26.0002 1188.57 -53.775 1212.52 -141.288C1236.46 -228.8 1237.21 -321.038 1214.71 -408.931C1192.21 -496.824 1147.21 -577.348 1084.16 -642.585C1021.11 -707.823 942.16 -755.528 855.083 -781.01Z" fill="url(#paint0_linear_1_1724)"/>
<defs>
<linearGradient id="paint0_linear_1_1724" x1="678.06" y1="-302.766" x2="1202.48" y2="105.112" gradientUnits="userSpaceOnUse">
<stop stop-color="#FF3B00"/>
<stop offset="1" stop-color="#FF8D00"/>
</linearGradient>
</defs>
</svg>
