<svg width="34" height="80" viewBox="0 0 34 80" fill="none" xmlns="http://www.w3.org/2000/svg">
<path d="M17 73.8984C16.6068 73.8984 16.2 73.8713 15.8068 73.8306C11.0746 73.3018 7.16952 69.3425 6.69494 64.5967C6.28816 60.4882 8.25427 56.6645 11.8068 54.5899L13.8271 53.4103V9.27469C13.8271 7.52554 15.2509 6.10181 17 6.10181C18.7492 6.10181 20.1729 7.52554 20.1729 9.27469V53.4103L22.1933 54.5899C25.3797 56.4476 27.3594 59.8781 27.3594 63.5391C27.3594 66.3052 26.2882 68.9086 24.3221 70.8611C23.3646 71.8285 22.224 72.5953 20.9668 73.1168C19.7096 73.6383 18.3611 73.904 17 73.8984Z" fill="url(#paint0_linear_1_1826)"/>
<path d="M32.9729 59.566C33.2983 60.8542 33.461 62.1965 33.461 63.5389C33.461 64.6643 32.5525 65.5728 31.4271 65.5728C30.3017 65.5728 29.3932 64.6643 29.3932 63.5389C29.3932 62.5219 29.2712 61.5186 29.0271 60.5423C28.7559 59.4575 29.4203 58.3457 30.5051 58.0745C31.5898 57.8033 32.7017 58.4677 32.9729 59.566Z" fill="white"/>
<path d="M29.095 71.6746C29.9221 72.4203 29.9899 73.7085 29.2442 74.5492C26.0713 78.0746 21.7052 80 17.0272 80C16.4035 80 15.7662 79.9729 15.1289 79.8915C7.48145 79.0508 1.37975 72.8678 0.620433 65.1932C0.0238224 59.1864 2.78992 53.3288 7.72552 49.9525V9.27458C7.72552 4.16271 11.8882 0 17.0001 0C22.112 0 26.2747 4.16271 26.2747 9.27458V49.9525C27.0069 50.4542 27.6984 51.0237 28.3492 51.6339C28.7231 52.0098 28.9355 52.5168 28.941 53.047C28.9466 53.5771 28.7449 54.0885 28.3789 54.4721C28.013 54.8557 27.5117 55.0813 26.9819 55.1008C26.452 55.1202 25.9356 54.932 25.5425 54.5763C24.8374 53.9119 24.0509 53.3153 23.2238 52.8407C22.5865 52.4746 22.2069 51.7966 22.2069 51.078V50.4271H17.0001C15.8747 50.4271 14.9662 49.5186 14.9662 48.3932C14.9662 47.2678 15.8747 46.3593 17.0001 46.3593H22.2069V38.5898H17.0001C15.8747 38.5898 14.9662 37.6814 14.9662 36.5559C14.9662 35.4305 15.8747 34.522 17.0001 34.522H22.2069V26.7525H17.0001C15.8747 26.7525 14.9662 25.8441 14.9662 24.7186C14.9662 23.5932 15.8747 22.6847 17.0001 22.6847H22.2069V14.9153H17.0001C15.8747 14.9153 14.9662 14.0068 14.9662 12.8814C14.9662 11.7559 15.8747 10.8475 17.0001 10.8475H22.2069V9.27458C22.1758 7.91423 21.6136 6.62005 20.6405 5.66893C19.6675 4.7178 18.3608 4.18528 17.0001 4.18528C15.6394 4.18528 14.3327 4.7178 13.3596 5.66893C12.3866 6.62005 11.8244 7.91423 11.7933 9.27458V51.078C11.7933 51.7966 11.4137 52.4746 10.7899 52.8271C6.5323 55.3085 4.18653 59.8915 4.67467 64.8C5.2306 70.4814 9.92213 75.2271 15.5764 75.8508C19.6442 76.3119 23.5086 74.8339 26.2204 71.8237C26.9662 70.9966 28.2543 70.9153 29.095 71.6746Z" fill="white"/>
<path d="M22.0034 58.617C22.661 59.2737 23.1827 60.0537 23.5386 60.9122C23.8946 61.7707 24.0778 62.691 24.0778 63.6204C24.0778 64.5498 23.8946 65.47 23.5386 66.3286C23.1827 67.1871 22.661 67.967 22.0034 68.6238C20.6203 70.0068 18.817 70.6984 17 70.6984C15.1831 70.6984 13.3797 70.0068 11.9966 68.6238C11.339 67.967 10.8173 67.1871 10.4614 66.3286C10.1054 65.47 9.9222 64.5498 9.9222 63.6204C9.9222 62.691 10.1054 61.7707 10.4614 60.9122C10.8173 60.0537 11.339 59.2737 11.9966 58.617C12.7831 57.817 14.0712 57.817 14.8712 58.617C15.6712 59.417 15.6712 60.6916 14.8712 61.4916C13.6915 62.6712 13.6915 64.5695 14.8712 65.7492C16.0509 66.9289 17.9627 66.9289 19.1288 65.7492C20.3085 64.5695 20.3085 62.6712 19.1288 61.4916C18.3288 60.6916 18.3288 59.417 19.1288 58.617C19.9288 57.817 21.217 57.817 22.0034 58.617ZM4.60678 16.1899V40C4.60678 41.1255 3.69831 42.0339 2.57288 42.0339C1.44746 42.0339 0.538986 41.1255 0.538986 40V16.1899C0.538986 15.0645 1.44746 14.156 2.57288 14.156C3.69831 14.156 4.60678 15.0645 4.60678 16.1899ZM4.60678 8.74581V10.0882C4.60678 11.2136 3.69831 12.1221 2.57288 12.1221C1.44746 12.1221 0.538986 11.2136 0.538986 10.0882V8.74581C0.538986 7.62039 1.44746 6.71191 2.57288 6.71191C3.69831 6.71191 4.60678 7.62039 4.60678 8.74581Z" fill="white"/>
<defs>
<linearGradient id="paint0_linear_1_1826" x1="16.2033" y1="37.6604" x2="32.3119" y2="41.4976" gradientUnits="userSpaceOnUse">
<stop stop-color="#FF3B00"/>
<stop offset="1" stop-color="#FF8D00"/>
</linearGradient>
</defs>
</svg>
