<svg width="201" height="128" viewBox="0 0 201 128" fill="none" xmlns="http://www.w3.org/2000/svg">
<path d="M5.293 18V8.976H0.780999V6.48H12.301V8.976H7.789V18H5.293ZM15.7376 18C15.3216 18 14.9376 17.8933 14.5856 17.68C14.2336 17.4667 13.951 17.184 13.7376 16.832C13.5243 16.48 13.4176 16.096 13.4176 15.68V11.04C13.4176 10.624 13.5243 10.24 13.7376 9.888C13.951 9.536 14.2336 9.25333 14.5856 9.04C14.9376 8.82667 15.3216 8.72 15.7376 8.72H20.5056C20.9323 8.72 21.3216 8.82667 21.6736 9.04C22.0256 9.25333 22.303 9.536 22.5056 9.888C22.719 10.24 22.8256 10.624 22.8256 11.04V14.592H15.8656V15.552H22.8256V18H15.7376ZM15.8656 12.448H20.3776V11.168H15.8656V12.448ZM24.5437 18V8.72H35.7117C36.1384 8.72 36.5277 8.82667 36.8797 9.04C37.2317 9.25333 37.5091 9.536 37.7117 9.888C37.9251 10.24 38.0317 10.624 38.0317 11.04V18H35.5997V11.168H32.5277V18H30.0637V11.168H26.9917V18H24.5437ZM39.2781 21.68V8.72H46.3661C46.7928 8.72 47.1821 8.82667 47.5341 9.04C47.8861 9.25333 48.1635 9.536 48.3661 9.888C48.5795 10.24 48.6861 10.624 48.6861 11.04V15.68C48.6861 16.096 48.5795 16.48 48.3661 16.832C48.1635 17.184 47.8861 17.4667 47.5341 17.68C47.1821 17.8933 46.7928 18 46.3661 18H41.7261V21.68H39.2781ZM41.7261 15.552H46.2381V11.168H41.7261V15.552ZM52.1751 18C51.7591 18 51.3751 17.8933 51.0231 17.68C50.6711 17.4667 50.3885 17.184 50.1751 16.832C49.9618 16.48 49.8551 16.096 49.8551 15.68V11.04C49.8551 10.624 49.9618 10.24 50.1751 9.888C50.3885 9.536 50.6711 9.25333 51.0231 9.04C51.3751 8.82667 51.7591 8.72 52.1751 8.72H56.9431C57.3698 8.72 57.7591 8.82667 58.1111 9.04C58.4631 9.25333 58.7405 9.536 58.9431 9.888C59.1565 10.24 59.2631 10.624 59.2631 11.04V14.592H52.3031V15.552H59.2631V18H52.1751ZM52.3031 12.448H56.8151V11.168H52.3031V12.448ZM60.8399 18V11.04C60.8399 10.624 60.9465 10.24 61.1599 9.888C61.3732 9.536 61.6559 9.25333 62.0079 9.04C62.3599 8.82667 62.7492 8.72 63.1759 8.72H68.2959V11.168H63.2879V18H60.8399ZM71.8942 18C71.4676 18 71.0782 17.8933 70.7262 17.68C70.3742 17.4667 70.0916 17.184 69.8782 16.832C69.6756 16.48 69.5742 16.096 69.5742 15.68V12.128H76.5342V11.168H69.5742V8.72H76.6622C77.0889 8.72 77.4782 8.82667 77.8302 9.04C78.1822 9.25333 78.4596 9.536 78.6622 9.888C78.8756 10.24 78.9822 10.624 78.9822 11.04V18H71.8942ZM72.0222 15.552H76.5342V14.272H72.0222V15.552ZM83.0356 18C82.609 18 82.2196 17.8933 81.8676 17.68C81.5156 17.4667 81.233 17.184 81.0196 16.832C80.8063 16.48 80.6996 16.096 80.6996 15.68V5.968H83.1476V8.72H86.5876V11.168H83.1476V15.552H86.5876V18H83.0356ZM90.2384 18C89.8117 18 89.4224 17.8933 89.0704 17.68C88.7184 17.4667 88.4357 17.184 88.2224 16.832C88.0197 16.48 87.9184 16.096 87.9184 15.68V8.72H90.3664V15.552H94.8784V8.72H97.3264V15.68C97.3264 16.096 97.2197 16.48 97.0064 16.832C96.8037 17.184 96.5264 17.4667 96.1744 17.68C95.8224 17.8933 95.433 18 95.0064 18H90.2384ZM99.0274 18V11.04C99.0274 10.624 99.134 10.24 99.3474 9.888C99.5607 9.536 99.8434 9.25333 100.195 9.04C100.547 8.82667 100.937 8.72 101.363 8.72H106.483V11.168H101.475V18H99.0274ZM109.909 18C109.493 18 109.109 17.8933 108.757 17.68C108.405 17.4667 108.123 17.184 107.909 16.832C107.696 16.48 107.589 16.096 107.589 15.68V11.04C107.589 10.624 107.696 10.24 107.909 9.888C108.123 9.536 108.405 9.25333 108.757 9.04C109.109 8.82667 109.493 8.72 109.909 8.72H114.677C115.104 8.72 115.493 8.82667 115.845 9.04C116.197 9.25333 116.475 9.536 116.677 9.888C116.891 10.24 116.997 10.624 116.997 11.04V14.592H110.037V15.552H116.997V18H109.909ZM110.037 12.448H114.549V11.168H110.037V12.448Z" fill="white"/>
<path d="M2.703 62.678V56.864H18.549V62.678H2.703ZM21.4979 71V60.398C21.4979 59.3847 21.7512 58.46 22.2579 57.624C22.7645 56.788 23.4359 56.1293 24.2719 55.648C25.1079 55.1413 26.0325 54.888 27.0459 54.888H42.5499V49.454H27.3119V51.658H21.4979V49.15C21.4979 48.1367 21.7512 47.212 22.2579 46.376C22.7645 45.54 23.4359 44.8813 24.2719 44.4C25.1079 43.8933 26.0325 43.64 27.0459 43.64H42.8159C43.8292 43.64 44.7539 43.8933 45.5899 44.4C46.4259 44.8813 47.0972 45.54 47.6039 46.376C48.1105 47.212 48.3639 48.1367 48.3639 49.15V55.192C48.3639 56.2053 48.1105 57.13 47.6039 57.966C47.0972 58.802 46.4259 59.4733 45.5899 59.98C44.7539 60.4867 43.8292 60.74 42.8159 60.74H27.3119V65.186H48.3639V71H21.4979ZM52.2808 71V60.398C52.2808 59.3847 52.5342 58.46 53.0408 57.624C53.5475 56.788 54.2188 56.1293 55.0548 55.648C55.8908 55.1413 56.8155 54.888 57.8288 54.888H73.3328V49.454H58.0948V51.658H52.2808V49.15C52.2808 48.1367 52.5342 47.212 53.0408 46.376C53.5475 45.54 54.2188 44.8813 55.0548 44.4C55.8908 43.8933 56.8155 43.64 57.8288 43.64H73.5988C74.6122 43.64 75.5368 43.8933 76.3728 44.4C77.2088 44.8813 77.8802 45.54 78.3868 46.376C78.8935 47.212 79.1468 48.1367 79.1468 49.15V55.192C79.1468 56.2053 78.8935 57.13 78.3868 57.966C77.8802 58.802 77.2088 59.4733 76.3728 59.98C75.5368 60.4867 74.6122 60.74 73.5988 60.74H58.0948V65.186H79.1468V71H52.2808ZM97.5038 71V64.198H81.1258V58.992L98.1118 43.64H103.318V58.346H106.966V64.198H103.318V71H97.5038ZM90.5878 58.346H97.5038V52.722L90.5878 58.346ZM115.154 57.966C114.14 57.966 113.216 57.7127 112.38 57.206C111.544 56.6993 110.872 56.028 110.366 55.192C109.859 54.356 109.606 53.4313 109.606 52.418V49.682C109.606 48.6687 109.859 47.744 110.366 46.908C110.872 46.072 111.544 45.4133 112.38 44.932C113.216 44.4253 114.14 44.172 115.154 44.172H118.232C119.22 44.172 120.132 44.4253 120.968 44.932C121.804 45.4133 122.475 46.072 122.982 46.908C123.488 47.744 123.742 48.6687 123.742 49.682V52.418C123.742 53.4313 123.488 54.356 122.982 55.192C122.475 56.028 121.804 56.6993 120.968 57.206C120.132 57.7127 119.22 57.966 118.232 57.966H115.154ZM114.736 52.798H118.612V49.302H114.736V52.798ZM8.213 119C7.17433 119 6.22433 118.747 5.363 118.24C4.527 117.733 3.85567 117.062 3.349 116.226C2.84233 115.365 2.589 114.415 2.589 113.376V97.264C2.589 96.2253 2.84233 95.288 3.349 94.452C3.85567 93.5907 4.527 92.9067 5.363 92.4C6.22433 91.8933 7.17433 91.64 8.213 91.64H29.873V97.568H9.733C9.32767 97.568 9.011 97.6693 8.783 97.872C8.58033 98.0747 8.479 98.3913 8.479 98.822V111.818C8.479 112.223 8.58033 112.54 8.783 112.768C9.011 112.971 9.32767 113.072 9.733 113.072H29.873V119H8.213ZM38.024 119C37.036 119 36.124 118.747 35.288 118.24C34.452 117.733 33.7807 117.062 33.274 116.226C32.7673 115.39 32.514 114.478 32.514 113.49V102.47C32.514 101.482 32.7673 100.57 33.274 99.734C33.7807 98.898 34.452 98.2267 35.288 97.72C36.124 97.2133 37.036 96.96 38.024 96.96H49.348C50.3613 96.96 51.286 97.2133 52.122 97.72C52.958 98.2267 53.6167 98.898 54.098 99.734C54.6047 100.57 54.858 101.482 54.858 102.47V110.906H38.328V113.186H54.858V119H38.024ZM38.328 105.814H49.044V102.774H38.328V105.814ZM62.6477 119C61.6597 119 60.7477 118.747 59.9117 118.24C59.0757 117.733 58.4044 117.062 57.8977 116.226C57.391 115.39 57.1377 114.478 57.1377 113.49V89.702H62.9897V113.186H67.4357V119H62.6477ZM74.5384 119C73.5504 119 72.6384 118.747 71.8024 118.24C70.9664 117.733 70.2951 117.062 69.7884 116.226C69.2818 115.39 69.0284 114.478 69.0284 113.49V112.388H74.8424V113.186H85.5584V110.906H74.5384C73.5504 110.906 72.6384 110.653 71.8024 110.146C70.9664 109.639 70.2951 108.968 69.7884 108.132C69.2818 107.296 69.0284 106.384 69.0284 105.396V102.47C69.0284 101.482 69.2818 100.57 69.7884 99.734C70.2951 98.898 70.9664 98.2267 71.8024 97.72C72.6384 97.2133 73.5504 96.96 74.5384 96.96H85.8624C86.8758 96.96 87.8004 97.2133 88.6364 97.72C89.4724 98.2267 90.1438 98.898 90.6504 99.734C91.1571 100.57 91.4104 101.482 91.4104 102.47V103.572H85.5584V102.774H74.8424V105.054H85.8624C86.8758 105.054 87.8004 105.307 88.6364 105.814C89.4724 106.321 90.1438 106.992 90.6504 107.828C91.1571 108.664 91.4104 109.576 91.4104 110.564V113.49C91.4104 114.478 91.1571 115.39 90.6504 116.226C90.1438 117.062 89.4724 117.733 88.6364 118.24C87.8004 118.747 86.8758 119 85.8624 119H74.5384ZM94.4712 119V96.96H100.285V119H94.4712ZM94.4712 95.592V89.74H100.285V95.592H94.4712ZM107.943 119C106.929 119 106.005 118.747 105.169 118.24C104.333 117.733 103.661 117.062 103.155 116.226C102.673 115.39 102.433 114.478 102.433 113.49V96.96H108.247V113.186H118.963V96.96H124.777V113.49C124.777 114.478 124.523 115.39 124.017 116.226C123.535 117.062 122.877 117.733 122.041 118.24C121.205 118.747 120.28 119 119.267 119H107.943ZM132.561 119C131.573 119 130.661 118.747 129.825 118.24C128.989 117.733 128.318 117.062 127.811 116.226C127.305 115.39 127.051 114.478 127.051 113.49V112.388H132.865V113.186H143.581V110.906H132.561C131.573 110.906 130.661 110.653 129.825 110.146C128.989 109.639 128.318 108.968 127.811 108.132C127.305 107.296 127.051 106.384 127.051 105.396V102.47C127.051 101.482 127.305 100.57 127.811 99.734C128.318 98.898 128.989 98.2267 129.825 97.72C130.661 97.2133 131.573 96.96 132.561 96.96H143.885C144.899 96.96 145.823 97.2133 146.659 97.72C147.495 98.2267 148.167 98.898 148.673 99.734C149.18 100.57 149.433 101.482 149.433 102.47V103.572H143.581V102.774H132.865V105.054H143.885C144.899 105.054 145.823 105.307 146.659 105.814C147.495 106.321 148.167 106.992 148.673 107.828C149.18 108.664 149.433 109.576 149.433 110.564V113.49C149.433 114.478 149.18 115.39 148.673 116.226C148.167 117.062 147.495 117.733 146.659 118.24C145.823 118.747 144.899 119 143.885 119H132.561Z" fill="white"/>
</svg>
