<svg width="202" height="128" viewBox="0 0 202 128" fill="none" xmlns="http://www.w3.org/2000/svg">
<path d="M1.88901 18V6.48H11.025C11.4623 6.48 11.857 6.58667 12.209 6.8C12.5717 7.01333 12.8597 7.30133 13.073 7.664C13.297 8.016 13.409 8.41067 13.409 8.848V15.632C13.409 16.0587 13.297 16.4533 13.073 16.816C12.8597 17.1787 12.5717 17.4667 12.209 17.68C11.857 17.8933 11.4623 18 11.025 18H1.88901ZM4.35301 15.504H10.897V8.976H4.35301V15.504ZM17.4568 18C17.0301 18 16.6408 17.8933 16.2888 17.68C15.9368 17.4667 15.6541 17.184 15.4408 16.832C15.2381 16.48 15.1368 16.096 15.1368 15.68V12.128H22.0968V11.168H15.1368V8.72H22.2248C22.6514 8.72 23.0408 8.82667 23.3928 9.04C23.7448 9.25333 24.0221 9.536 24.2248 9.888C24.4381 10.24 24.5448 10.624 24.5448 11.04V18H17.4568ZM17.5848 15.552H22.0968V14.272H17.5848V15.552ZM27.5581 21.328V18.864H33.0621V18H28.4221C27.9955 18 27.6061 17.8933 27.2541 17.68C26.9021 17.4667 26.6195 17.184 26.4061 16.832C26.1928 16.48 26.0861 16.096 26.0861 15.68V8.752H28.5341V15.552H33.0621V8.752H35.5101V19.008C35.5101 19.4347 35.4035 19.824 35.1901 20.176C34.9875 20.528 34.7101 20.8053 34.3581 21.008C34.0061 21.2213 33.6168 21.328 33.1901 21.328H27.5581ZM44.7075 18C44.2808 18 43.8915 17.8933 43.5395 17.68C43.1875 17.4667 42.9048 17.184 42.6915 16.832C42.4782 16.48 42.3715 16.096 42.3715 15.68V5.968H44.8195V8.72H48.2595V11.168H44.8195V15.552H48.2595V18H44.7075ZM49.5743 18V8.72H52.0223V18H49.5743ZM49.5743 8.144V5.68H52.0223V8.144H49.5743ZM53.2625 18V8.72H64.4305C64.8572 8.72 65.2465 8.82667 65.5985 9.04C65.9505 9.25333 66.2278 9.536 66.4305 9.888C66.6438 10.24 66.7505 10.624 66.7505 11.04V18H64.3185V11.168H61.2465V18H58.7825V11.168H55.7105V18H53.2625ZM70.5345 18C70.1185 18 69.7345 17.8933 69.3825 17.68C69.0305 17.4667 68.7478 17.184 68.5345 16.832C68.3212 16.48 68.2145 16.096 68.2145 15.68V11.04C68.2145 10.624 68.3212 10.24 68.5345 9.888C68.7478 9.536 69.0305 9.25333 69.3825 9.04C69.7345 8.82667 70.1185 8.72 70.5345 8.72H75.3025C75.7292 8.72 76.1185 8.82667 76.4705 9.04C76.8225 9.25333 77.0998 9.536 77.3025 9.888C77.5158 10.24 77.6225 10.624 77.6225 11.04V14.592H70.6625V15.552H77.6225V18H70.5345ZM70.6625 12.448H75.1745V11.168H70.6625V12.448ZM88.4649 18V8.976H83.9529V6.48H95.4729V8.976H90.9609V18H88.4649ZM98.9095 18C98.4935 18 98.1095 17.8933 97.7575 17.68C97.4055 17.4667 97.1228 17.184 96.9095 16.832C96.6962 16.48 96.5895 16.096 96.5895 15.68V11.04C96.5895 10.624 96.6962 10.24 96.9095 9.888C97.1228 9.536 97.4055 9.25333 97.7575 9.04C98.1095 8.82667 98.4935 8.72 98.9095 8.72H103.678C104.104 8.72 104.494 8.82667 104.846 9.04C105.198 9.25333 105.475 9.536 105.678 9.888C105.891 10.24 105.998 10.624 105.998 11.04V14.592H99.0375V15.552H105.998V18H98.9095ZM99.0375 12.448H103.55V11.168H99.0375V12.448ZM107.716 18V8.72H118.884C119.31 8.72 119.7 8.82667 120.052 9.04C120.404 9.25333 120.681 9.536 120.884 9.888C121.097 10.24 121.204 10.624 121.204 11.04V18H118.772V11.168H115.7V18H113.236V11.168H110.164V18H107.716ZM122.45 21.68V8.72H129.538C129.965 8.72 130.354 8.82667 130.706 9.04C131.058 9.25333 131.335 9.536 131.538 9.888C131.751 10.24 131.858 10.624 131.858 11.04V15.68C131.858 16.096 131.751 16.48 131.538 16.832C131.335 17.184 131.058 17.4667 130.706 17.68C130.354 17.8933 129.965 18 129.538 18H124.898V21.68H122.45ZM124.898 15.552H129.41V11.168H124.898V15.552ZM135.347 18C134.931 18 134.547 17.8933 134.195 17.68C133.843 17.4667 133.56 17.184 133.347 16.832C133.134 16.48 133.027 16.096 133.027 15.68V11.04C133.027 10.624 133.134 10.24 133.347 9.888C133.56 9.536 133.843 9.25333 134.195 9.04C134.547 8.82667 134.931 8.72 135.347 8.72H140.115C140.542 8.72 140.931 8.82667 141.283 9.04C141.635 9.25333 141.912 9.536 142.115 9.888C142.328 10.24 142.435 10.624 142.435 11.04V14.592H135.475V15.552H142.435V18H135.347ZM135.475 12.448H139.987V11.168H135.475V12.448ZM144.012 18V11.04C144.012 10.624 144.118 10.24 144.332 9.888C144.545 9.536 144.828 9.25333 145.18 9.04C145.532 8.82667 145.921 8.72 146.348 8.72H151.468V11.168H146.46V18H144.012ZM155.066 18C154.639 18 154.25 17.8933 153.898 17.68C153.546 17.4667 153.263 17.184 153.05 16.832C152.847 16.48 152.746 16.096 152.746 15.68V12.128H159.706V11.168H152.746V8.72H159.834C160.261 8.72 160.65 8.82667 161.002 9.04C161.354 9.25333 161.631 9.536 161.834 9.888C162.047 10.24 162.154 10.624 162.154 11.04V18H155.066ZM155.194 15.552H159.706V14.272H155.194V15.552ZM166.208 18C165.781 18 165.392 17.8933 165.04 17.68C164.688 17.4667 164.405 17.184 164.192 16.832C163.978 16.48 163.872 16.096 163.872 15.68V5.968H166.32V8.72H169.76V11.168H166.32V15.552H169.76V18H166.208ZM173.41 18C172.984 18 172.594 17.8933 172.242 17.68C171.89 17.4667 171.608 17.184 171.394 16.832C171.192 16.48 171.09 16.096 171.09 15.68V8.72H173.538V15.552H178.05V8.72H180.498V15.68C180.498 16.096 180.392 16.48 180.178 16.832C179.976 17.184 179.698 17.4667 179.346 17.68C178.994 17.8933 178.605 18 178.178 18H173.41ZM182.199 18V11.04C182.199 10.624 182.306 10.24 182.519 9.888C182.733 9.536 183.015 9.25333 183.367 9.04C183.719 8.82667 184.109 8.72 184.535 8.72H189.655V11.168H184.647V18H182.199ZM193.081 18C192.665 18 192.281 17.8933 191.929 17.68C191.577 17.4667 191.295 17.184 191.081 16.832C190.868 16.48 190.761 16.096 190.761 15.68V11.04C190.761 10.624 190.868 10.24 191.081 9.888C191.295 9.536 191.577 9.25333 191.929 9.04C192.281 8.82667 192.665 8.72 193.081 8.72H197.849C198.276 8.72 198.665 8.82667 199.017 9.04C199.369 9.25333 199.647 9.536 199.849 9.888C200.063 10.24 200.169 10.624 200.169 11.04V14.592H193.209V15.552H200.169V18H193.081ZM193.209 12.448H197.721V11.168H193.209V12.448Z" fill="white"/>
<path d="M2.59501 71V66.934H21.025V71H2.59501ZM13.843 54.432H21.025V58.498H13.843V65.642H9.77701V58.498H2.59501V54.432H9.77701V47.212H13.843V54.432ZM38.5531 71V64.198H22.1751V58.992L39.1611 43.64H44.3671V58.346H48.0151V64.198H44.3671V71H38.5531ZM31.6371 58.346H38.5531V52.722L31.6371 58.346ZM56.5069 71C55.4936 71 54.5689 70.7467 53.7329 70.24C52.8969 69.7333 52.2256 69.062 51.7189 68.226C51.2123 67.39 50.9589 66.478 50.9589 65.49V63.362H56.7729V65.186H72.0109V60.132H55.4429V54.318H70.9849V49.454H56.7729V51.582H50.9589V49.15C50.9589 48.1367 51.2123 47.212 51.7189 46.376C52.2256 45.54 52.8969 44.8813 53.7329 44.4C54.5689 43.8933 55.4936 43.64 56.5069 43.64H71.2889C72.3023 43.64 73.2269 43.8933 74.0629 44.4C74.8989 44.8813 75.5576 45.54 76.0389 46.376C76.5456 47.212 76.7989 48.1367 76.7989 49.15V54.622C76.7989 54.9007 76.7736 55.2047 76.7229 55.534C76.6976 55.838 76.6469 56.1167 76.5709 56.37C76.9509 56.826 77.2549 57.358 77.4829 57.966C77.7109 58.5487 77.8249 59.1693 77.8249 59.828V65.49C77.8249 66.478 77.5716 67.39 77.0649 68.226C76.5836 69.062 75.9249 69.7333 75.0889 70.24C74.2529 70.7467 73.3283 71 72.3149 71H56.5069ZM87.2935 71C86.2801 71 85.3555 70.7213 84.5195 70.164C83.6835 69.5813 83.0121 68.8467 82.5055 67.96C81.9988 67.048 81.7455 66.098 81.7455 65.11V49.302C81.7455 48.2887 81.9988 47.3513 82.5055 46.49C83.0121 45.6287 83.6835 44.9447 84.5195 44.438C85.3555 43.906 86.2801 43.64 87.2935 43.64H103.063C104.077 43.64 105.001 43.906 105.837 44.438C106.673 44.9447 107.345 45.6287 107.851 46.49C108.358 47.3513 108.611 48.2887 108.611 49.302V65.11C108.611 66.098 108.358 67.048 107.851 67.96C107.345 68.8467 106.673 69.5813 105.837 70.164C105.001 70.7213 104.077 71 103.063 71H87.2935ZM90.6755 64.806H102.797V54.622L90.6755 64.806ZM87.5595 59.79L99.6815 49.606H87.5595V59.79ZM117.769 57.966C116.756 57.966 115.831 57.7127 114.995 57.206C114.159 56.6993 113.488 56.028 112.981 55.192C112.474 54.356 112.221 53.4313 112.221 52.418V49.682C112.221 48.6687 112.474 47.744 112.981 46.908C113.488 46.072 114.159 45.4133 114.995 44.932C115.831 44.4253 116.756 44.172 117.769 44.172H120.847C121.835 44.172 122.747 44.4253 123.583 44.932C124.419 45.4133 125.09 46.072 125.597 46.908C126.104 47.744 126.357 48.6687 126.357 49.682V52.418C126.357 53.4313 126.104 54.356 125.597 55.192C125.09 56.028 124.419 56.6993 123.583 57.206C122.747 57.7127 121.835 57.966 120.847 57.966H117.769ZM117.351 52.798H121.227V49.302H117.351V52.798ZM8.71301 119C7.67435 119 6.72435 118.747 5.86301 118.24C5.02701 117.733 4.35568 117.062 3.84901 116.226C3.34235 115.365 3.08901 114.415 3.08901 113.376V97.264C3.08901 96.2253 3.34235 95.288 3.84901 94.452C4.35568 93.5907 5.02701 92.9067 5.86301 92.4C6.72435 91.8933 7.67435 91.64 8.71301 91.64H30.373V97.568H10.233C9.82768 97.568 9.51101 97.6693 9.28301 97.872C9.08035 98.0747 8.97901 98.3913 8.97901 98.822V111.818C8.97901 112.223 9.08035 112.54 9.28301 112.768C9.51101 112.971 9.82768 113.072 10.233 113.072H30.373V119H8.71301ZM38.524 119C37.536 119 36.624 118.747 35.788 118.24C34.952 117.733 34.2807 117.062 33.774 116.226C33.2673 115.39 33.014 114.478 33.014 113.49V102.47C33.014 101.482 33.2673 100.57 33.774 99.734C34.2807 98.898 34.952 98.2267 35.788 97.72C36.624 97.2133 37.536 96.96 38.524 96.96H49.848C50.8613 96.96 51.786 97.2133 52.622 97.72C53.458 98.2267 54.1167 98.898 54.598 99.734C55.1047 100.57 55.358 101.482 55.358 102.47V110.906H38.828V113.186H55.358V119H38.524ZM38.828 105.814H49.544V102.774H38.828V105.814ZM63.1477 119C62.1597 119 61.2477 118.747 60.4117 118.24C59.5757 117.733 58.9044 117.062 58.3977 116.226C57.891 115.39 57.6377 114.478 57.6377 113.49V89.702H63.4897V113.186H67.9357V119H63.1477ZM75.0385 119C74.0505 119 73.1385 118.747 72.3025 118.24C71.4665 117.733 70.7951 117.062 70.2885 116.226C69.7818 115.39 69.5285 114.478 69.5285 113.49V112.388H75.3425V113.186H86.0585V110.906H75.0385C74.0505 110.906 73.1385 110.653 72.3025 110.146C71.4665 109.639 70.7951 108.968 70.2885 108.132C69.7818 107.296 69.5285 106.384 69.5285 105.396V102.47C69.5285 101.482 69.7818 100.57 70.2885 99.734C70.7951 98.898 71.4665 98.2267 72.3025 97.72C73.1385 97.2133 74.0505 96.96 75.0385 96.96H86.3625C87.3758 96.96 88.3005 97.2133 89.1365 97.72C89.9725 98.2267 90.6438 98.898 91.1505 99.734C91.6571 100.57 91.9105 101.482 91.9105 102.47V103.572H86.0585V102.774H75.3425V105.054H86.3625C87.3758 105.054 88.3005 105.307 89.1365 105.814C89.9725 106.321 90.6438 106.992 91.1505 107.828C91.6571 108.664 91.9105 109.576 91.9105 110.564V113.49C91.9105 114.478 91.6571 115.39 91.1505 116.226C90.6438 117.062 89.9725 117.733 89.1365 118.24C88.3005 118.747 87.3758 119 86.3625 119H75.0385ZM94.9712 119V96.96H100.785V119H94.9712ZM94.9712 95.592V89.74H100.785V95.592H94.9712ZM108.443 119C107.429 119 106.505 118.747 105.669 118.24C104.833 117.733 104.161 117.062 103.655 116.226C103.173 115.39 102.933 114.478 102.933 113.49V96.96H108.747V113.186H119.463V96.96H125.277V113.49C125.277 114.478 125.023 115.39 124.517 116.226C124.035 117.062 123.377 117.733 122.541 118.24C121.705 118.747 120.78 119 119.767 119H108.443ZM133.061 119C132.073 119 131.161 118.747 130.325 118.24C129.489 117.733 128.818 117.062 128.311 116.226C127.805 115.39 127.551 114.478 127.551 113.49V112.388H133.365V113.186H144.081V110.906H133.061C132.073 110.906 131.161 110.653 130.325 110.146C129.489 109.639 128.818 108.968 128.311 108.132C127.805 107.296 127.551 106.384 127.551 105.396V102.47C127.551 101.482 127.805 100.57 128.311 99.734C128.818 98.898 129.489 98.2267 130.325 97.72C131.161 97.2133 132.073 96.96 133.061 96.96H144.385C145.399 96.96 146.323 97.2133 147.159 97.72C147.995 98.2267 148.667 98.898 149.173 99.734C149.68 100.57 149.933 101.482 149.933 102.47V103.572H144.081V102.774H133.365V105.054H144.385C145.399 105.054 146.323 105.307 147.159 105.814C147.995 106.321 148.667 106.992 149.173 107.828C149.68 108.664 149.933 109.576 149.933 110.564V113.49C149.933 114.478 149.68 115.39 149.173 116.226C148.667 117.062 147.995 117.733 147.159 118.24C146.323 118.747 145.399 119 144.385 119H133.061Z" fill="white"/>
</svg>
