<svg width="212" height="128" viewBox="0 0 212 128" fill="none" xmlns="http://www.w3.org/2000/svg">
<path d="M1.857 18V6.48H4.417L10.865 14.16V6.48H13.377V18H10.817L4.337 10.288V18H1.857ZM15.1055 18V8.72H17.5535V18H15.1055ZM15.1055 8.144V5.68H17.5535V8.144H15.1055ZM20.0577 21.664V19.2H25.5617V18H20.9217C20.4951 18 20.1057 17.8933 19.7537 17.68C19.4017 17.4667 19.1191 17.184 18.9057 16.832C18.6924 16.48 18.5857 16.096 18.5857 15.68V11.04C18.5857 10.624 18.6924 10.24 18.9057 9.888C19.1191 9.536 19.4017 9.25333 19.7537 9.04C20.1057 8.82667 20.4951 8.72 20.9217 8.72H25.6897C26.1164 8.72 26.5057 8.82667 26.8577 9.04C27.2097 9.25333 27.4871 9.536 27.6897 9.888C27.9031 10.24 28.0097 10.624 28.0097 11.04V19.344C28.0097 19.7707 27.9031 20.16 27.6897 20.512C27.4871 20.864 27.2097 21.1413 26.8577 21.344C26.5057 21.5573 26.1164 21.664 25.6897 21.664H20.0577ZM21.0337 15.552H25.5617V11.168H21.0337V15.552ZM29.7156 18V5.68H32.1636V8.72H36.8036C37.2196 8.72 37.6036 8.82667 37.9556 9.04C38.3076 9.25333 38.5903 9.536 38.8036 9.888C39.017 10.24 39.1236 10.624 39.1236 11.04V18H36.6756V11.168H32.1636V18H29.7156ZM42.7231 18C42.2965 18 41.9071 17.8933 41.5551 17.68C41.2031 17.4667 40.9205 17.184 40.7071 16.832C40.4938 16.48 40.3871 16.096 40.3871 15.68V5.968H42.8351V8.72H46.2751V11.168H42.8351V15.552H46.2751V18H42.7231ZM55.0981 18C54.6715 18 54.2821 17.8933 53.9301 17.68C53.5781 17.4667 53.2955 17.184 53.0821 16.832C52.8688 16.48 52.7621 16.096 52.7621 15.68V5.968H55.2101V8.72H58.6501V11.168H55.2101V15.552H58.6501V18H55.0981ZM59.9649 18V8.72H62.4129V18H59.9649ZM59.9649 8.144V5.68H62.4129V8.144H59.9649ZM63.6531 18V8.72H74.8211C75.2478 8.72 75.6371 8.82667 75.9891 9.04C76.3411 9.25333 76.6185 9.536 76.8211 9.888C77.0345 10.24 77.1411 10.624 77.1411 11.04V18H74.7091V11.168H71.6371V18H69.1731V11.168H66.1011V18H63.6531ZM80.9251 18C80.5091 18 80.1251 17.8933 79.7731 17.68C79.4211 17.4667 79.1385 17.184 78.9251 16.832C78.7118 16.48 78.6051 16.096 78.6051 15.68V11.04C78.6051 10.624 78.7118 10.24 78.9251 9.888C79.1385 9.536 79.4211 9.25333 79.7731 9.04C80.1251 8.82667 80.5091 8.72 80.9251 8.72H85.6931C86.1198 8.72 86.5091 8.82667 86.8611 9.04C87.2131 9.25333 87.4905 9.536 87.6931 9.888C87.9065 10.24 88.0131 10.624 88.0131 11.04V14.592H81.0531V15.552H88.0131V18H80.9251ZM81.0531 12.448H85.5651V11.168H81.0531V12.448ZM98.8555 18V8.976H94.3435V6.48H105.863V8.976H101.351V18H98.8555ZM109.3 18C108.884 18 108.5 17.8933 108.148 17.68C107.796 17.4667 107.513 17.184 107.3 16.832C107.087 16.48 106.98 16.096 106.98 15.68V11.04C106.98 10.624 107.087 10.24 107.3 9.888C107.513 9.536 107.796 9.25333 108.148 9.04C108.5 8.82667 108.884 8.72 109.3 8.72H114.068C114.495 8.72 114.884 8.82667 115.236 9.04C115.588 9.25333 115.865 9.536 116.068 9.888C116.281 10.24 116.388 10.624 116.388 11.04V14.592H109.428V15.552H116.388V18H109.3ZM109.428 12.448H113.94V11.168H109.428V12.448ZM118.106 18V8.72H129.274C129.701 8.72 130.09 8.82667 130.442 9.04C130.794 9.25333 131.072 9.536 131.274 9.888C131.488 10.24 131.594 10.624 131.594 11.04V18H129.162V11.168H126.09V18H123.626V11.168H120.554V18H118.106ZM132.841 21.68V8.72H139.929C140.355 8.72 140.745 8.82667 141.097 9.04C141.449 9.25333 141.726 9.536 141.929 9.888C142.142 10.24 142.249 10.624 142.249 11.04V15.68C142.249 16.096 142.142 16.48 141.929 16.832C141.726 17.184 141.449 17.4667 141.097 17.68C140.745 17.8933 140.355 18 139.929 18H135.289V21.68H132.841ZM135.289 15.552H139.801V11.168H135.289V15.552ZM145.738 18C145.322 18 144.938 17.8933 144.586 17.68C144.234 17.4667 143.951 17.184 143.738 16.832C143.524 16.48 143.418 16.096 143.418 15.68V11.04C143.418 10.624 143.524 10.24 143.738 9.888C143.951 9.536 144.234 9.25333 144.586 9.04C144.938 8.82667 145.322 8.72 145.738 8.72H150.506C150.932 8.72 151.322 8.82667 151.674 9.04C152.026 9.25333 152.303 9.536 152.506 9.888C152.719 10.24 152.826 10.624 152.826 11.04V14.592H145.866V15.552H152.826V18H145.738ZM145.866 12.448H150.378V11.168H145.866V12.448ZM154.402 18V11.04C154.402 10.624 154.509 10.24 154.722 9.888C154.936 9.536 155.218 9.25333 155.57 9.04C155.922 8.82667 156.312 8.72 156.738 8.72H161.858V11.168H156.85V18H154.402ZM165.457 18C165.03 18 164.641 17.8933 164.289 17.68C163.937 17.4667 163.654 17.184 163.441 16.832C163.238 16.48 163.137 16.096 163.137 15.68V12.128H170.097V11.168H163.137V8.72H170.225C170.651 8.72 171.041 8.82667 171.393 9.04C171.745 9.25333 172.022 9.536 172.225 9.888C172.438 10.24 172.545 10.624 172.545 11.04V18H165.457ZM165.585 15.552H170.097V14.272H165.585V15.552ZM176.598 18C176.171 18 175.782 17.8933 175.43 17.68C175.078 17.4667 174.795 17.184 174.582 16.832C174.369 16.48 174.262 16.096 174.262 15.68V5.968H176.71V8.72H180.15V11.168H176.71V15.552H180.15V18H176.598ZM183.801 18C183.374 18 182.985 17.8933 182.633 17.68C182.281 17.4667 181.998 17.184 181.785 16.832C181.582 16.48 181.481 16.096 181.481 15.68V8.72H183.929V15.552H188.441V8.72H190.889V15.68C190.889 16.096 190.782 16.48 190.569 16.832C190.366 17.184 190.089 17.4667 189.737 17.68C189.385 17.8933 188.996 18 188.569 18H183.801ZM192.59 18V11.04C192.59 10.624 192.697 10.24 192.91 9.888C193.123 9.536 193.406 9.25333 193.758 9.04C194.11 8.82667 194.499 8.72 194.926 8.72H200.046V11.168H195.038V18H192.59ZM203.472 18C203.056 18 202.672 17.8933 202.32 17.68C201.968 17.4667 201.685 17.184 201.472 16.832C201.259 16.48 201.152 16.096 201.152 15.68V11.04C201.152 10.624 201.259 10.24 201.472 9.888C201.685 9.536 201.968 9.25333 202.32 9.04C202.672 8.82667 203.056 8.72 203.472 8.72H208.24C208.667 8.72 209.056 8.82667 209.408 9.04C209.76 9.25333 210.037 9.536 210.24 9.888C210.453 10.24 210.56 10.624 210.56 11.04V14.592H203.6V15.552H210.56V18H203.472ZM203.6 12.448H208.112V11.168H203.6V12.448Z" fill="white"/>
<path d="M3.203 62.678V56.864H19.049V62.678H3.203ZM28.8379 71V52.494L27.5839 54.052H19.8699L28.6099 43.64H34.6519V71H28.8379ZM41.6296 71C40.6163 71 39.6916 70.7467 38.8556 70.24C38.0196 69.7333 37.3483 69.062 36.8416 68.226C36.3349 67.39 36.0816 66.478 36.0816 65.49V59.714C36.0816 59.2833 36.1449 58.8527 36.2716 58.422C36.3983 57.966 36.5503 57.5353 36.7276 57.13C36.5503 56.7247 36.3983 56.3067 36.2716 55.876C36.1449 55.42 36.0816 54.964 36.0816 54.508V49.15C36.0816 48.1367 36.3349 47.212 36.8416 46.376C37.3483 45.54 38.0196 44.8813 38.8556 44.4C39.6916 43.8933 40.6163 43.64 41.6296 43.64H57.3996C58.3116 43.64 59.1603 43.8427 59.9456 44.248C60.7309 44.628 61.3896 45.16 61.9216 45.844C62.4536 46.528 62.7956 47.3007 62.9476 48.162V54.508C62.9476 55.3947 62.7323 56.2687 62.3016 57.13C62.7323 57.89 62.9476 58.7513 62.9476 59.714V65.49C62.9476 66.478 62.6943 67.39 62.1876 68.226C61.6809 69.062 61.0096 69.7333 60.1736 70.24C59.3376 70.7467 58.4129 71 57.3996 71H41.6296ZM41.8956 65.186H57.1336V60.056H41.8956V65.186ZM41.8956 54.584H57.1336V49.492H41.8956V54.584ZM72.561 71C71.5477 71 70.623 70.7213 69.787 70.164C68.951 69.5813 68.2797 68.8467 67.773 67.96C67.2663 67.048 67.013 66.098 67.013 65.11V49.302C67.013 48.2887 67.2663 47.3513 67.773 46.49C68.2797 45.6287 68.951 44.9447 69.787 44.438C70.623 43.906 71.5477 43.64 72.561 43.64H88.331C89.3444 43.64 90.269 43.906 91.105 44.438C91.941 44.9447 92.6123 45.6287 93.119 46.49C93.6257 47.3513 93.879 48.2887 93.879 49.302V65.11C93.879 66.098 93.6257 67.048 93.119 67.96C92.6123 68.8467 91.941 69.5813 91.105 70.164C90.269 70.7213 89.3444 71 88.331 71H72.561ZM75.943 64.806H88.065V54.622L75.943 64.806ZM72.827 59.79L84.949 49.606H72.827V59.79ZM103.036 57.966C102.023 57.966 101.098 57.7127 100.262 57.206C99.4264 56.6993 98.7551 56.028 98.2484 55.192C97.7418 54.356 97.4884 53.4313 97.4884 52.418V49.682C97.4884 48.6687 97.7418 47.744 98.2484 46.908C98.7551 46.072 99.4264 45.4133 100.262 44.932C101.098 44.4253 102.023 44.172 103.036 44.172H106.114C107.102 44.172 108.014 44.4253 108.85 44.932C109.686 45.4133 110.358 46.072 110.864 46.908C111.371 47.744 111.624 48.6687 111.624 49.682V52.418C111.624 53.4313 111.371 54.356 110.864 55.192C110.358 56.028 109.686 56.6993 108.85 57.206C108.014 57.7127 107.102 57.966 106.114 57.966H103.036ZM102.618 52.798H106.494V49.302H102.618V52.798ZM8.713 119C7.67433 119 6.72433 118.747 5.863 118.24C5.027 117.733 4.35567 117.062 3.849 116.226C3.34233 115.365 3.089 114.415 3.089 113.376V97.264C3.089 96.2253 3.34233 95.288 3.849 94.452C4.35567 93.5907 5.027 92.9067 5.863 92.4C6.72433 91.8933 7.67433 91.64 8.713 91.64H30.373V97.568H10.233C9.82767 97.568 9.511 97.6693 9.283 97.872C9.08033 98.0747 8.979 98.3913 8.979 98.822V111.818C8.979 112.223 9.08033 112.54 9.283 112.768C9.511 112.971 9.82767 113.072 10.233 113.072H30.373V119H8.713ZM38.524 119C37.536 119 36.624 118.747 35.788 118.24C34.952 117.733 34.2807 117.062 33.774 116.226C33.2673 115.39 33.014 114.478 33.014 113.49V102.47C33.014 101.482 33.2673 100.57 33.774 99.734C34.2807 98.898 34.952 98.2267 35.788 97.72C36.624 97.2133 37.536 96.96 38.524 96.96H49.848C50.8613 96.96 51.786 97.2133 52.622 97.72C53.458 98.2267 54.1167 98.898 54.598 99.734C55.1047 100.57 55.358 101.482 55.358 102.47V110.906H38.828V113.186H55.358V119H38.524ZM38.828 105.814H49.544V102.774H38.828V105.814ZM63.1477 119C62.1597 119 61.2477 118.747 60.4117 118.24C59.5757 117.733 58.9044 117.062 58.3977 116.226C57.891 115.39 57.6377 114.478 57.6377 113.49V89.702H63.4897V113.186H67.9357V119H63.1477ZM75.0384 119C74.0504 119 73.1384 118.747 72.3024 118.24C71.4664 117.733 70.7951 117.062 70.2884 116.226C69.7818 115.39 69.5284 114.478 69.5284 113.49V112.388H75.3424V113.186H86.0584V110.906H75.0384C74.0504 110.906 73.1384 110.653 72.3024 110.146C71.4664 109.639 70.7951 108.968 70.2884 108.132C69.7818 107.296 69.5284 106.384 69.5284 105.396V102.47C69.5284 101.482 69.7818 100.57 70.2884 99.734C70.7951 98.898 71.4664 98.2267 72.3024 97.72C73.1384 97.2133 74.0504 96.96 75.0384 96.96H86.3624C87.3758 96.96 88.3004 97.2133 89.1364 97.72C89.9724 98.2267 90.6438 98.898 91.1504 99.734C91.6571 100.57 91.9104 101.482 91.9104 102.47V103.572H86.0584V102.774H75.3424V105.054H86.3624C87.3758 105.054 88.3004 105.307 89.1364 105.814C89.9724 106.321 90.6438 106.992 91.1504 107.828C91.6571 108.664 91.9104 109.576 91.9104 110.564V113.49C91.9104 114.478 91.6571 115.39 91.1504 116.226C90.6438 117.062 89.9724 117.733 89.1364 118.24C88.3004 118.747 87.3758 119 86.3624 119H75.0384ZM94.9712 119V96.96H100.785V119H94.9712ZM94.9712 95.592V89.74H100.785V95.592H94.9712ZM108.443 119C107.429 119 106.505 118.747 105.669 118.24C104.833 117.733 104.161 117.062 103.655 116.226C103.173 115.39 102.933 114.478 102.933 113.49V96.96H108.747V113.186H119.463V96.96H125.277V113.49C125.277 114.478 125.023 115.39 124.517 116.226C124.035 117.062 123.377 117.733 122.541 118.24C121.705 118.747 120.78 119 119.767 119H108.443ZM133.061 119C132.073 119 131.161 118.747 130.325 118.24C129.489 117.733 128.818 117.062 128.311 116.226C127.805 115.39 127.551 114.478 127.551 113.49V112.388H133.365V113.186H144.081V110.906H133.061C132.073 110.906 131.161 110.653 130.325 110.146C129.489 109.639 128.818 108.968 128.311 108.132C127.805 107.296 127.551 106.384 127.551 105.396V102.47C127.551 101.482 127.805 100.57 128.311 99.734C128.818 98.898 129.489 98.2267 130.325 97.72C131.161 97.2133 132.073 96.96 133.061 96.96H144.385C145.399 96.96 146.323 97.2133 147.159 97.72C147.995 98.2267 148.667 98.898 149.173 99.734C149.68 100.57 149.933 101.482 149.933 102.47V103.572H144.081V102.774H133.365V105.054H144.385C145.399 105.054 146.323 105.307 147.159 105.814C147.995 106.321 148.667 106.992 149.173 107.828C149.68 108.664 149.933 109.576 149.933 110.564V113.49C149.933 114.478 149.68 115.39 149.173 116.226C148.667 117.062 147.995 117.733 147.159 118.24C146.323 118.747 145.399 119 144.385 119H133.061Z" fill="white"/>
</svg>
