<svg width="706" height="706" viewBox="0 0 706 706" fill="none" xmlns="http://www.w3.org/2000/svg">
<circle opacity="0.1" cx="353" cy="353" r="353" fill="#D9D9D9"/>
<circle opacity="0.3" cx="353" cy="353" r="338" fill="#D9D9D9"/>
<path d="M368.106 31.2959C362.469 31.2959 356.832 31.2959 351.194 31.2959C286.929 31.2959 226.047 50.496 175.311 83.2493C183.203 86.6375 189.968 90.0258 196.733 93.4141C259.87 116.002 321.88 86.6375 368.106 31.2959Z" fill="#FCFCFC"/>
<path d="M367.102 31.2959C322.004 86.6375 258.867 116.002 196.856 92.2846C190.092 88.8964 183.327 85.5081 175.435 82.1199C146.121 101.32 121.317 123.908 99.8953 149.885C116.807 141.979 134.846 135.203 151.758 128.426C216.023 110.355 289.308 192.803 325.386 137.462C363.72 88.8964 413.328 60.6609 464.064 50.4961C432.495 40.3313 400.926 33.5547 367.102 31.2959Z" fill="#EFEFEF"/>
<path d="M464.944 48.6155C414.208 58.7803 364.6 88.1452 326.266 135.581C289.06 190.923 215.776 108.475 152.638 126.546C135.726 133.322 117.687 140.099 100.775 148.005C95.138 155.91 88.3732 163.816 83.8634 171.722C110.922 160.428 143.619 168.334 161.658 181.887C207.884 208.993 262.001 264.335 326.266 237.229C381.512 210.123 399.551 136.71 445.777 109.604C489.748 82.4981 532.591 107.345 576.562 119.769C544.993 88.1452 506.659 64.4274 464.944 48.6155Z" fill="#E5E5E5"/>
<path d="M576.561 118.639C532.59 106.216 489.746 81.3686 445.776 108.475C399.55 135.581 381.511 208.993 326.265 236.099C262 263.205 206.755 208.993 161.657 180.758C142.49 169.463 110.921 160.428 83.8623 171.722C69.2054 194.311 56.8033 219.158 47.7837 245.135C94.0094 222.546 143.617 271.111 180.824 300.476C272.147 364.853 418.717 346.783 464.942 227.064C492.001 162.687 565.286 236.099 611.512 218.029C621.659 213.511 630.678 206.734 638.571 198.828C621.659 169.463 601.365 142.357 576.561 118.639Z" fill="#DBDBDB"/>
<path d="M250.23 651.354C284.054 662.648 319.005 669.424 356.211 669.424C364.103 669.424 373.123 669.424 381.015 668.295C337.044 657.001 290.818 637.801 250.23 651.354Z" fill="#8C8C8C"/>
<path d="M448.786 598.145C393.541 598.145 348.443 662.522 293.198 625.251C255.992 602.662 206.383 592.498 160.158 603.792C187.217 624.121 216.531 639.933 249.227 651.227C290.943 638.804 336.041 656.875 381.139 668.169C422.855 664.781 462.316 653.486 498.395 636.545C482.61 618.474 469.081 598.145 448.786 598.145Z" fill="#9B9B9B"/>
<path d="M641.829 494.112C591.094 511.054 540.358 577.689 493.005 588.984C437.76 598.019 382.515 542.677 346.436 552.842C255.112 561.878 172.808 588.984 99.5231 506.536C93.8858 506.536 82.6112 503.148 72.4641 506.536C93.8858 544.936 123.2 578.819 159.278 604.796C205.504 593.501 255.112 603.666 292.318 626.255C347.563 662.396 392.662 599.148 447.907 599.148C468.201 599.148 481.731 619.478 497.515 638.678C558.398 607.054 610.261 556.23 641.829 494.112Z" fill="#AAAAAA"/>
<path d="M565.163 426.221C538.104 472.527 527.957 517.704 482.858 535.775C427.613 553.845 400.554 499.633 363.348 489.468C272.024 471.398 170.553 562.881 97.2683 443.162C90.5036 436.385 62.3172 418.315 40.8955 435.256C48.7877 461.233 58.9348 484.951 71.3368 507.539C81.4839 505.28 92.7585 507.539 98.3958 507.539C171.68 589.987 253.985 562.881 345.309 553.845C382.515 544.81 436.633 600.152 491.878 589.987C539.231 577.563 591.094 512.057 640.702 495.115C655.359 466.88 665.506 435.256 671.143 402.503C633.937 407.021 596.731 386.691 565.163 426.221Z" fill="#B7B7B7"/>
<path d="M666.881 276.885C636.44 283.661 602.616 288.179 582.322 308.509C545.116 344.65 527.077 399.992 471.832 418.062C416.586 436.133 371.488 371.756 325.262 371.756C260.997 371.756 214.772 445.169 132.467 418.062C73.8397 393.215 83.9868 314.156 29.8689 308.509C28.7415 322.062 27.614 336.744 27.614 350.297C27.614 380.792 32.1238 410.156 40.016 437.263C61.4377 420.321 89.6241 438.392 96.3888 445.169C169.673 563.758 270.017 472.275 362.468 491.475C399.674 500.51 426.733 555.852 481.979 537.781C528.204 519.71 537.224 473.404 564.283 428.227C594.724 389.827 633.058 409.027 671.391 405.639C674.774 387.568 675.901 369.497 675.901 351.427C674.774 325.45 672.519 300.603 666.881 276.885Z" fill="#C1C1C1"/>
<path d="M133.471 419.066C215.775 446.172 262.001 372.76 326.266 372.76C372.492 372.76 417.59 437.137 472.835 419.066C528.081 400.996 546.12 345.654 583.326 309.512C603.62 289.183 637.444 284.665 667.885 277.889C661.121 249.653 650.974 223.676 638.571 198.829C630.679 206.735 621.66 212.382 611.513 218.029C565.287 236.1 492.002 162.688 464.943 227.065C418.718 345.654 272.148 364.854 180.824 300.477C143.618 271.112 94.0102 222.547 47.7845 245.135C41.0198 265.465 35.3825 286.924 32.0001 309.512C86.118 315.159 74.8435 394.219 133.471 419.066Z" fill="#CCCCCC"/>
<path d="M675.777 288.053C674.65 288.053 675.777 288.053 678.032 290.312C676.905 288.053 675.777 288.053 675.777 288.053Z" fill="black"/>
<path opacity="0.1" d="M442.702 42.2283C450.594 70.4638 456.231 100.958 456.231 132.582C456.231 311.031 310.789 455.596 132.651 455.596C101.082 455.596 70.6411 451.079 41.3273 442.043C80.7882 576.445 204.808 674.704 352.505 674.704C531.771 674.704 676.085 530.138 676.085 351.69C676.085 205.994 577.996 81.758 442.702 42.2283Z" fill="url(#paint0_linear_1_1594)"/>
<path opacity="0.7" d="M184.874 160.185C192.029 168.946 184.874 186.468 168.972 198.415C153.07 210.362 134.783 212.752 127.627 203.194C120.472 194.433 127.627 176.911 143.529 164.963C160.226 153.016 178.513 150.627 184.874 160.185Z" fill="white"/>
<defs>
<linearGradient id="paint0_linear_1_1594" x1="173.774" y1="213.744" x2="721.665" y2="639.259" gradientUnits="userSpaceOnUse">
<stop/>
<stop offset="0.5688"/>
<stop offset="0.6061"/>
<stop offset="1" stop-color="#404040"/>
</linearGradient>
</defs>
</svg>
