<svg width="201" height="128" viewBox="0 0 201 128" fill="none" xmlns="http://www.w3.org/2000/svg">
<path d="M5.293 18V8.976H0.780999V6.48H12.301V8.976H7.789V18H5.293ZM15.7376 18C15.3216 18 14.9376 17.8933 14.5856 17.68C14.2336 17.4667 13.951 17.184 13.7376 16.832C13.5243 16.48 13.4176 16.096 13.4176 15.68V11.04C13.4176 10.624 13.5243 10.24 13.7376 9.888C13.951 9.536 14.2336 9.25333 14.5856 9.04C14.9376 8.82667 15.3216 8.72 15.7376 8.72H20.5056C20.9323 8.72 21.3216 8.82667 21.6736 9.04C22.0256 9.25333 22.303 9.536 22.5056 9.888C22.719 10.24 22.8256 10.624 22.8256 11.04V14.592H15.8656V15.552H22.8256V18H15.7376ZM15.8656 12.448H20.3776V11.168H15.8656V12.448ZM24.5437 18V8.72H35.7117C36.1384 8.72 36.5277 8.82667 36.8797 9.04C37.2317 9.25333 37.5091 9.536 37.7117 9.888C37.9251 10.24 38.0317 10.624 38.0317 11.04V18H35.5997V11.168H32.5277V18H30.0637V11.168H26.9917V18H24.5437ZM39.2781 21.68V8.72H46.3661C46.7928 8.72 47.1821 8.82667 47.5341 9.04C47.8861 9.25333 48.1635 9.536 48.3661 9.888C48.5795 10.24 48.6861 10.624 48.6861 11.04V15.68C48.6861 16.096 48.5795 16.48 48.3661 16.832C48.1635 17.184 47.8861 17.4667 47.5341 17.68C47.1821 17.8933 46.7928 18 46.3661 18H41.7261V21.68H39.2781ZM41.7261 15.552H46.2381V11.168H41.7261V15.552ZM52.1751 18C51.7591 18 51.3751 17.8933 51.0231 17.68C50.6711 17.4667 50.3885 17.184 50.1751 16.832C49.9618 16.48 49.8551 16.096 49.8551 15.68V11.04C49.8551 10.624 49.9618 10.24 50.1751 9.888C50.3885 9.536 50.6711 9.25333 51.0231 9.04C51.3751 8.82667 51.7591 8.72 52.1751 8.72H56.9431C57.3698 8.72 57.7591 8.82667 58.1111 9.04C58.4631 9.25333 58.7405 9.536 58.9431 9.888C59.1565 10.24 59.2631 10.624 59.2631 11.04V14.592H52.3031V15.552H59.2631V18H52.1751ZM52.3031 12.448H56.8151V11.168H52.3031V12.448ZM60.8399 18V11.04C60.8399 10.624 60.9465 10.24 61.1599 9.888C61.3732 9.536 61.6559 9.25333 62.0079 9.04C62.3599 8.82667 62.7492 8.72 63.1759 8.72H68.2959V11.168H63.2879V18H60.8399ZM71.8942 18C71.4676 18 71.0782 17.8933 70.7262 17.68C70.3742 17.4667 70.0916 17.184 69.8782 16.832C69.6756 16.48 69.5742 16.096 69.5742 15.68V12.128H76.5342V11.168H69.5742V8.72H76.6622C77.0889 8.72 77.4782 8.82667 77.8302 9.04C78.1822 9.25333 78.4596 9.536 78.6622 9.888C78.8756 10.24 78.9822 10.624 78.9822 11.04V18H71.8942ZM72.0222 15.552H76.5342V14.272H72.0222V15.552ZM83.0356 18C82.609 18 82.2196 17.8933 81.8676 17.68C81.5156 17.4667 81.233 17.184 81.0196 16.832C80.8063 16.48 80.6996 16.096 80.6996 15.68V5.968H83.1476V8.72H86.5876V11.168H83.1476V15.552H86.5876V18H83.0356ZM90.2384 18C89.8117 18 89.4224 17.8933 89.0704 17.68C88.7184 17.4667 88.4357 17.184 88.2224 16.832C88.0197 16.48 87.9184 16.096 87.9184 15.68V8.72H90.3664V15.552H94.8784V8.72H97.3264V15.68C97.3264 16.096 97.2197 16.48 97.0064 16.832C96.8037 17.184 96.5264 17.4667 96.1744 17.68C95.8224 17.8933 95.433 18 95.0064 18H90.2384ZM99.0274 18V11.04C99.0274 10.624 99.134 10.24 99.3474 9.888C99.5607 9.536 99.8434 9.25333 100.195 9.04C100.547 8.82667 100.937 8.72 101.363 8.72H106.483V11.168H101.475V18H99.0274ZM109.909 18C109.493 18 109.109 17.8933 108.757 17.68C108.405 17.4667 108.123 17.184 107.909 16.832C107.696 16.48 107.589 16.096 107.589 15.68V11.04C107.589 10.624 107.696 10.24 107.909 9.888C108.123 9.536 108.405 9.25333 108.757 9.04C109.109 8.82667 109.493 8.72 109.909 8.72H114.677C115.104 8.72 115.493 8.82667 115.845 9.04C116.197 9.25333 116.475 9.536 116.677 9.888C116.891 10.24 116.997 10.624 116.997 11.04V14.592H110.037V15.552H116.997V18H109.909ZM110.037 12.448H114.549V11.168H110.037V12.448Z" fill="white"/>
<path d="M2.703 62.678V56.864H18.549V62.678H2.703ZM28.3379 71V52.494L27.0839 54.052H19.3699L28.1099 43.64H34.1519V71H28.3379ZM40.9776 71C39.9643 71 39.0396 70.7467 38.2036 70.24C37.3676 69.7333 36.6963 69.062 36.1896 68.226C35.6829 67.39 35.4296 66.478 35.4296 65.49V63.362H41.2436V65.186H56.4816V60.132H39.9136V54.318H55.4556V49.454H41.2436V51.582H35.4296V49.15C35.4296 48.1367 35.6829 47.212 36.1896 46.376C36.6963 45.54 37.3676 44.8813 38.2036 44.4C39.0396 43.8933 39.9643 43.64 40.9776 43.64H55.7596C56.7729 43.64 57.6976 43.8933 58.5336 44.4C59.3696 44.8813 60.0283 45.54 60.5096 46.376C61.0163 47.212 61.2696 48.1367 61.2696 49.15V54.622C61.2696 54.9007 61.2443 55.2047 61.1936 55.534C61.1683 55.838 61.1176 56.1167 61.0416 56.37C61.4216 56.826 61.7256 57.358 61.9536 57.966C62.1816 58.5487 62.2956 59.1693 62.2956 59.828V65.49C62.2956 66.478 62.0423 67.39 61.5356 68.226C61.0543 69.062 60.3956 69.7333 59.5596 70.24C58.7236 70.7467 57.7989 71 56.7856 71H40.9776ZM71.6501 71C70.7381 71 69.8895 70.7467 69.1041 70.24C68.3188 69.708 67.6475 69.0113 67.0901 68.15C66.5328 67.2633 66.1655 66.2753 65.9881 65.186H87.1541V60.322H71.6501C70.6368 60.322 69.7121 60.0687 68.8761 59.562C68.0401 59.0553 67.3688 58.384 66.8621 57.548C66.3555 56.712 66.1021 55.7873 66.1021 54.774V49.15C66.1021 48.1367 66.3555 47.212 66.8621 46.376C67.3688 45.54 68.0401 44.8813 68.8761 44.4C69.7121 43.8933 70.6368 43.64 71.6501 43.64H87.4581C88.4715 43.64 89.3961 43.8933 90.2321 44.4C91.0681 44.8813 91.7268 45.54 92.2081 46.376C92.7148 47.212 92.9681 48.1367 92.9681 49.15V65.49C92.9681 66.478 92.7148 67.39 92.2081 68.226C91.7268 69.062 91.0681 69.7333 90.2321 70.24C89.3961 70.7467 88.4715 71 87.4581 71H71.6501ZM71.9541 54.47H87.1541V49.454H71.9541V54.47ZM102.017 57.966C101.004 57.966 100.079 57.7127 99.2429 57.206C98.4069 56.6993 97.7356 56.028 97.2289 55.192C96.7222 54.356 96.4689 53.4313 96.4689 52.418V49.682C96.4689 48.6687 96.7222 47.744 97.2289 46.908C97.7356 46.072 98.4069 45.4133 99.2429 44.932C100.079 44.4253 101.004 44.172 102.017 44.172H105.095C106.083 44.172 106.995 44.4253 107.831 44.932C108.667 45.4133 109.338 46.072 109.845 46.908C110.352 47.744 110.605 48.6687 110.605 49.682V52.418C110.605 53.4313 110.352 54.356 109.845 55.192C109.338 56.028 108.667 56.6993 107.831 57.206C106.995 57.7127 106.083 57.966 105.095 57.966H102.017ZM101.599 52.798H105.475V49.302H101.599V52.798ZM8.213 119C7.17433 119 6.22433 118.747 5.363 118.24C4.527 117.733 3.85567 117.062 3.349 116.226C2.84233 115.365 2.589 114.415 2.589 113.376V97.264C2.589 96.2253 2.84233 95.288 3.349 94.452C3.85567 93.5907 4.527 92.9067 5.363 92.4C6.22433 91.8933 7.17433 91.64 8.213 91.64H29.873V97.568H9.733C9.32767 97.568 9.011 97.6693 8.783 97.872C8.58033 98.0747 8.479 98.3913 8.479 98.822V111.818C8.479 112.223 8.58033 112.54 8.783 112.768C9.011 112.971 9.32767 113.072 9.733 113.072H29.873V119H8.213ZM38.024 119C37.036 119 36.124 118.747 35.288 118.24C34.452 117.733 33.7807 117.062 33.274 116.226C32.7673 115.39 32.514 114.478 32.514 113.49V102.47C32.514 101.482 32.7673 100.57 33.274 99.734C33.7807 98.898 34.452 98.2267 35.288 97.72C36.124 97.2133 37.036 96.96 38.024 96.96H49.348C50.3613 96.96 51.286 97.2133 52.122 97.72C52.958 98.2267 53.6167 98.898 54.098 99.734C54.6047 100.57 54.858 101.482 54.858 102.47V110.906H38.328V113.186H54.858V119H38.024ZM38.328 105.814H49.044V102.774H38.328V105.814ZM62.6477 119C61.6597 119 60.7477 118.747 59.9117 118.24C59.0757 117.733 58.4044 117.062 57.8977 116.226C57.391 115.39 57.1377 114.478 57.1377 113.49V89.702H62.9897V113.186H67.4357V119H62.6477ZM74.5384 119C73.5504 119 72.6384 118.747 71.8024 118.24C70.9664 117.733 70.2951 117.062 69.7884 116.226C69.2818 115.39 69.0284 114.478 69.0284 113.49V112.388H74.8424V113.186H85.5584V110.906H74.5384C73.5504 110.906 72.6384 110.653 71.8024 110.146C70.9664 109.639 70.2951 108.968 69.7884 108.132C69.2818 107.296 69.0284 106.384 69.0284 105.396V102.47C69.0284 101.482 69.2818 100.57 69.7884 99.734C70.2951 98.898 70.9664 98.2267 71.8024 97.72C72.6384 97.2133 73.5504 96.96 74.5384 96.96H85.8624C86.8758 96.96 87.8004 97.2133 88.6364 97.72C89.4724 98.2267 90.1438 98.898 90.6504 99.734C91.1571 100.57 91.4104 101.482 91.4104 102.47V103.572H85.5584V102.774H74.8424V105.054H85.8624C86.8758 105.054 87.8004 105.307 88.6364 105.814C89.4724 106.321 90.1438 106.992 90.6504 107.828C91.1571 108.664 91.4104 109.576 91.4104 110.564V113.49C91.4104 114.478 91.1571 115.39 90.6504 116.226C90.1438 117.062 89.4724 117.733 88.6364 118.24C87.8004 118.747 86.8758 119 85.8624 119H74.5384ZM94.4712 119V96.96H100.285V119H94.4712ZM94.4712 95.592V89.74H100.285V95.592H94.4712ZM107.943 119C106.929 119 106.005 118.747 105.169 118.24C104.333 117.733 103.661 117.062 103.155 116.226C102.673 115.39 102.433 114.478 102.433 113.49V96.96H108.247V113.186H118.963V96.96H124.777V113.49C124.777 114.478 124.523 115.39 124.017 116.226C123.535 117.062 122.877 117.733 122.041 118.24C121.205 118.747 120.28 119 119.267 119H107.943ZM132.561 119C131.573 119 130.661 118.747 129.825 118.24C128.989 117.733 128.318 117.062 127.811 116.226C127.305 115.39 127.051 114.478 127.051 113.49V112.388H132.865V113.186H143.581V110.906H132.561C131.573 110.906 130.661 110.653 129.825 110.146C128.989 109.639 128.318 108.968 127.811 108.132C127.305 107.296 127.051 106.384 127.051 105.396V102.47C127.051 101.482 127.305 100.57 127.811 99.734C128.318 98.898 128.989 98.2267 129.825 97.72C130.661 97.2133 131.573 96.96 132.561 96.96H143.885C144.899 96.96 145.823 97.2133 146.659 97.72C147.495 98.2267 148.167 98.898 148.673 99.734C149.18 100.57 149.433 101.482 149.433 102.47V103.572H143.581V102.774H132.865V105.054H143.885C144.899 105.054 145.823 105.307 146.659 105.814C147.495 106.321 148.167 106.992 148.673 107.828C149.18 108.664 149.433 109.576 149.433 110.564V113.49C149.433 114.478 149.18 115.39 148.673 116.226C148.167 117.062 147.495 117.733 146.659 118.24C145.823 118.747 144.899 119 143.885 119H132.561Z" fill="white"/>
</svg>
