<svg width="752" height="714" viewBox="0 0 752 714" fill="none" xmlns="http://www.w3.org/2000/svg">
<path d="M81.0565 701.663C60.5088 687.976 37.9684 677.548 14.2335 670.745C28.5295 735.354 54.4027 796.844 90.6027 852.243C119.05 792.698 144.252 741.168 81.0565 701.663Z" fill="#37B5A5"/>
<path d="M594.066 810.448C283.244 965.799 205.347 608.338 19.7699 452.986C17.271 450.67 14.4394 448.74 11.3693 447.261C4.60679 481.142 1.02733 515.581 0.677612 550.129C0.696199 590.713 5.24281 631.169 14.2331 670.746C37.9681 677.548 60.5085 687.977 81.0562 701.663C144.252 741.169 119.241 792.699 91.366 852.244C144.059 931.654 216.408 996.086 301.381 1039.28C466.53 888.505 676.927 892.322 874.15 934.691C892.414 935.43 910.174 940.888 925.699 950.532C997.182 883.547 1049.45 798.68 1077.1 704.717C1028.96 655.008 970.225 616.782 905.271 592.879C734.013 530.662 718.357 748.231 594.066 810.448Z" fill="#4DCEBB"/>
<path d="M252.124 390.962C304.437 317.676 215.848 258.512 123.823 203.929C89.6992 245.939 61.9707 292.757 41.5355 342.868C132.415 408.52 199.429 506.808 252.124 390.962Z" fill="#37B5A5"/>
<path d="M1091.99 461.002C983.74 495.737 874.532 484.667 811.718 421.878C752.341 350.691 892.288 297.634 989.659 221.104C966.758 190.655 940.783 162.643 912.144 137.512C880.711 138.837 849.927 146.881 821.867 161.103C793.807 175.326 769.123 195.395 749.478 219.959C671.772 359.852 702.892 530.662 578.601 608.338C500.705 655.096 438.655 592.879 392.07 546.312C298.708 421.878 376.414 204.5 220.239 126.442L206.493 120.908C175.811 145.47 147.842 173.237 123.059 203.736C215.084 258.319 303.672 318.246 251.359 390.769C198.665 506.615 131.651 408.327 41.3441 342.675C27.5624 376.416 17.2007 411.453 10.4146 447.261C13.4847 448.74 16.3163 450.67 18.8152 452.986C205.347 608.338 283.244 965.8 594.066 810.448C718.357 748.231 734.013 530.662 904.889 592.879C969.843 616.782 1028.57 655.008 1076.72 704.717C1091.47 654.508 1098.99 602.457 1099.06 550.129C1099.04 520.281 1096.67 490.481 1091.99 461.002Z" fill="#36EAC7"/>
<path d="M438.655 235.419C438.655 282.177 500.705 328.744 562.946 313.286C671.39 252.977 649.816 127.207 640.843 8.68943C579.06 -1.99316 515.902 -1.99316 454.12 8.68943C464.621 77.3953 429.3 170.148 438.655 235.419Z" fill="#92FFEA"/>
<path d="M640.842 8.69067C649.052 127.208 671.39 252.978 562.946 314.05C500.705 329.509 438.655 282.942 438.655 236.184C429.3 170.15 464.62 77.3966 454.119 9.45407C363.772 25.4013 278.883 63.7932 207.256 121.101L221.003 126.636C376.414 204.503 298.708 421.88 392.833 546.505C439.418 593.073 501.468 655.29 579.365 608.531C703.656 530.856 672.535 360.427 751.196 220.152C770.841 195.588 795.525 175.519 823.585 161.297C851.645 147.075 882.429 139.03 913.862 137.705C836.764 69.9513 742.154 25.2436 640.842 8.69067Z" fill="#55FFDE"/>
<path d="M464.238 757.393C455.456 780.104 414.98 785.638 373.741 769.798C332.501 753.957 306.154 722.658 314.937 699.947C323.719 677.236 363.431 671.701 405.434 688.114C447.437 704.527 473.021 734.682 464.238 757.393Z" fill="#4DCEBB"/>
<path d="M591.012 479.133C598.267 510.814 569.438 544.595 526.289 554.519C483.14 564.443 442.474 546.694 435.219 515.013C427.964 483.332 456.793 449.552 499.751 440.009C542.708 430.467 583.757 447.452 591.012 479.133Z" fill="#36EAC7"/>
<path d="M404.862 83.6914C412.117 98.0051 395.506 121.861 366.677 135.602C337.848 149.344 309.4 149.916 302.718 135.602C296.036 121.289 312.073 97.4325 340.902 83.6914C369.732 69.9502 397.416 69.3776 404.862 83.6914Z" fill="#92FFEA"/>
<path opacity="0.2" d="M704.038 23.1938C718.735 73.2129 726.193 125.078 726.185 177.21C726.21 249.322 712.019 320.733 684.424 387.361C656.829 453.989 616.37 514.529 565.359 565.52C514.348 616.511 453.785 656.955 387.131 684.54C320.478 712.124 249.04 726.309 176.899 726.284C124.757 726.354 72.8721 718.964 22.8245 704.337C49.5891 795.84 99.7264 878.801 168.303 945.056C236.879 1011.31 321.531 1058.57 413.928 1082.2C506.325 1105.82 603.283 1104.99 695.261 1079.78C787.239 1054.58 871.066 1005.87 938.495 938.447C1005.92 871.026 1054.63 787.216 1079.82 695.267C1105.01 603.317 1105.81 506.396 1082.15 414.041C1058.5 321.686 1011.19 237.08 944.89 168.549C878.591 100.017 795.584 49.9225 704.038 23.1938Z" fill="url(#paint0_linear_1_1413)"/>
<path opacity="0.7" d="M418.607 153.733C435.027 175.49 417.653 216.332 380.423 244.96C343.193 273.587 298.517 279.122 282.098 257.174C265.678 235.226 282.098 194.575 320.282 165.948C358.467 137.32 401.615 131.213 418.607 153.733Z" fill="white"/>
<defs>
<linearGradient id="paint0_linear_1_1413" x1="247.35" y1="314.812" x2="1175.73" y2="1037.33" gradientUnits="userSpaceOnUse">
<stop/>
<stop offset="0.57"/>
<stop offset="0.61"/>
<stop offset="1" stop-color="#404040"/>
</linearGradient>
</defs>
</svg>
