<svg width="201" height="128" viewBox="0 0 201 128" fill="none" xmlns="http://www.w3.org/2000/svg">
<path d="M5.293 18V8.976H0.780999V6.48H12.301V8.976H7.789V18H5.293ZM15.7376 18C15.3216 18 14.9376 17.8933 14.5856 17.68C14.2336 17.4667 13.951 17.184 13.7376 16.832C13.5243 16.48 13.4176 16.096 13.4176 15.68V11.04C13.4176 10.624 13.5243 10.24 13.7376 9.888C13.951 9.536 14.2336 9.25333 14.5856 9.04C14.9376 8.82667 15.3216 8.72 15.7376 8.72H20.5056C20.9323 8.72 21.3216 8.82667 21.6736 9.04C22.0256 9.25333 22.303 9.536 22.5056 9.888C22.719 10.24 22.8256 10.624 22.8256 11.04V14.592H15.8656V15.552H22.8256V18H15.7376ZM15.8656 12.448H20.3776V11.168H15.8656V12.448ZM24.5437 18V8.72H35.7117C36.1384 8.72 36.5277 8.82667 36.8797 9.04C37.2317 9.25333 37.5091 9.536 37.7117 9.888C37.9251 10.24 38.0317 10.624 38.0317 11.04V18H35.5997V11.168H32.5277V18H30.0637V11.168H26.9917V18H24.5437ZM39.2781 21.68V8.72H46.3661C46.7928 8.72 47.1821 8.82667 47.5341 9.04C47.8861 9.25333 48.1635 9.536 48.3661 9.888C48.5795 10.24 48.6861 10.624 48.6861 11.04V15.68C48.6861 16.096 48.5795 16.48 48.3661 16.832C48.1635 17.184 47.8861 17.4667 47.5341 17.68C47.1821 17.8933 46.7928 18 46.3661 18H41.7261V21.68H39.2781ZM41.7261 15.552H46.2381V11.168H41.7261V15.552ZM52.1751 18C51.7591 18 51.3751 17.8933 51.0231 17.68C50.6711 17.4667 50.3885 17.184 50.1751 16.832C49.9618 16.48 49.8551 16.096 49.8551 15.68V11.04C49.8551 10.624 49.9618 10.24 50.1751 9.888C50.3885 9.536 50.6711 9.25333 51.0231 9.04C51.3751 8.82667 51.7591 8.72 52.1751 8.72H56.9431C57.3698 8.72 57.7591 8.82667 58.1111 9.04C58.4631 9.25333 58.7405 9.536 58.9431 9.888C59.1565 10.24 59.2631 10.624 59.2631 11.04V14.592H52.3031V15.552H59.2631V18H52.1751ZM52.3031 12.448H56.8151V11.168H52.3031V12.448ZM60.8399 18V11.04C60.8399 10.624 60.9465 10.24 61.1599 9.888C61.3732 9.536 61.6559 9.25333 62.0079 9.04C62.3599 8.82667 62.7492 8.72 63.1759 8.72H68.2959V11.168H63.2879V18H60.8399ZM71.8942 18C71.4676 18 71.0782 17.8933 70.7262 17.68C70.3742 17.4667 70.0916 17.184 69.8782 16.832C69.6756 16.48 69.5742 16.096 69.5742 15.68V12.128H76.5342V11.168H69.5742V8.72H76.6622C77.0889 8.72 77.4782 8.82667 77.8302 9.04C78.1822 9.25333 78.4596 9.536 78.6622 9.888C78.8756 10.24 78.9822 10.624 78.9822 11.04V18H71.8942ZM72.0222 15.552H76.5342V14.272H72.0222V15.552ZM83.0356 18C82.609 18 82.2196 17.8933 81.8676 17.68C81.5156 17.4667 81.233 17.184 81.0196 16.832C80.8063 16.48 80.6996 16.096 80.6996 15.68V5.968H83.1476V8.72H86.5876V11.168H83.1476V15.552H86.5876V18H83.0356ZM90.2384 18C89.8117 18 89.4224 17.8933 89.0704 17.68C88.7184 17.4667 88.4357 17.184 88.2224 16.832C88.0197 16.48 87.9184 16.096 87.9184 15.68V8.72H90.3664V15.552H94.8784V8.72H97.3264V15.68C97.3264 16.096 97.2197 16.48 97.0064 16.832C96.8037 17.184 96.5264 17.4667 96.1744 17.68C95.8224 17.8933 95.433 18 95.0064 18H90.2384ZM99.0274 18V11.04C99.0274 10.624 99.134 10.24 99.3474 9.888C99.5607 9.536 99.8434 9.25333 100.195 9.04C100.547 8.82667 100.937 8.72 101.363 8.72H106.483V11.168H101.475V18H99.0274ZM109.909 18C109.493 18 109.109 17.8933 108.757 17.68C108.405 17.4667 108.123 17.184 107.909 16.832C107.696 16.48 107.589 16.096 107.589 15.68V11.04C107.589 10.624 107.696 10.24 107.909 9.888C108.123 9.536 108.405 9.25333 108.757 9.04C109.109 8.82667 109.493 8.72 109.909 8.72H114.677C115.104 8.72 115.493 8.82667 115.845 9.04C116.197 9.25333 116.475 9.536 116.677 9.888C116.891 10.24 116.997 10.624 116.997 11.04V14.592H110.037V15.552H116.997V18H109.909ZM110.037 12.448H114.549V11.168H110.037V12.448Z" fill="white"/>
<path d="M2.703 62.678V56.864H18.549V62.678H2.703ZM28.3379 71V52.494L27.0839 54.052H19.3699L28.1099 43.64H34.1519V71H28.3379ZM41.1296 71C40.1163 71 39.1916 70.7213 38.3556 70.164C37.5196 69.5813 36.8483 68.8467 36.3416 67.96C35.8349 67.048 35.5816 66.098 35.5816 65.11V49.302C35.5816 48.2887 35.8349 47.3513 36.3416 46.49C36.8483 45.6287 37.5196 44.9447 38.3556 44.438C39.1916 43.906 40.1163 43.64 41.1296 43.64H56.8996C57.9129 43.64 58.8376 43.906 59.6736 44.438C60.5096 44.9447 61.1809 45.6287 61.6876 46.49C62.1943 47.3513 62.4476 48.2887 62.4476 49.302V65.11C62.4476 66.098 62.1943 67.048 61.6876 67.96C61.1809 68.8467 60.5096 69.5813 59.6736 70.164C58.8376 70.7213 57.9129 71 56.8996 71H41.1296ZM44.5116 64.806H56.6336V54.622L44.5116 64.806ZM41.3956 59.79L53.5176 49.606H41.3956V59.79ZM72.061 71C71.0477 71 70.123 70.7467 69.287 70.24C68.451 69.7333 67.7797 69.062 67.273 68.226C66.7663 67.39 66.513 66.478 66.513 65.49V59.714C66.513 59.2833 66.5763 58.8527 66.703 58.422C66.8297 57.966 66.9817 57.5353 67.159 57.13C66.9817 56.7247 66.8297 56.3067 66.703 55.876C66.5763 55.42 66.513 54.964 66.513 54.508V49.15C66.513 48.1367 66.7663 47.212 67.273 46.376C67.7797 45.54 68.451 44.8813 69.287 44.4C70.123 43.8933 71.0477 43.64 72.061 43.64H87.831C88.743 43.64 89.5917 43.8427 90.377 44.248C91.1624 44.628 91.821 45.16 92.353 45.844C92.885 46.528 93.227 47.3007 93.379 48.162V54.508C93.379 55.3947 93.1637 56.2687 92.733 57.13C93.1637 57.89 93.379 58.7513 93.379 59.714V65.49C93.379 66.478 93.1257 67.39 92.619 68.226C92.1123 69.062 91.441 69.7333 90.605 70.24C89.769 70.7467 88.8444 71 87.831 71H72.061ZM72.327 65.186H87.565V60.056H72.327V65.186ZM72.327 54.584H87.565V49.492H72.327V54.584ZM102.536 57.966C101.523 57.966 100.598 57.7127 99.7624 57.206C98.9264 56.6993 98.2551 56.028 97.7484 55.192C97.2418 54.356 96.9884 53.4313 96.9884 52.418V49.682C96.9884 48.6687 97.2418 47.744 97.7484 46.908C98.2551 46.072 98.9264 45.4133 99.7624 44.932C100.598 44.4253 101.523 44.172 102.536 44.172H105.614C106.602 44.172 107.514 44.4253 108.35 44.932C109.186 45.4133 109.858 46.072 110.364 46.908C110.871 47.744 111.124 48.6687 111.124 49.682V52.418C111.124 53.4313 110.871 54.356 110.364 55.192C109.858 56.028 109.186 56.6993 108.35 57.206C107.514 57.7127 106.602 57.966 105.614 57.966H102.536ZM102.118 52.798H105.994V49.302H102.118V52.798ZM8.213 119C7.17433 119 6.22433 118.747 5.363 118.24C4.527 117.733 3.85567 117.062 3.349 116.226C2.84233 115.365 2.589 114.415 2.589 113.376V97.264C2.589 96.2253 2.84233 95.288 3.349 94.452C3.85567 93.5907 4.527 92.9067 5.363 92.4C6.22433 91.8933 7.17433 91.64 8.213 91.64H29.873V97.568H9.733C9.32767 97.568 9.011 97.6693 8.783 97.872C8.58033 98.0747 8.479 98.3913 8.479 98.822V111.818C8.479 112.223 8.58033 112.54 8.783 112.768C9.011 112.971 9.32767 113.072 9.733 113.072H29.873V119H8.213ZM38.024 119C37.036 119 36.124 118.747 35.288 118.24C34.452 117.733 33.7807 117.062 33.274 116.226C32.7673 115.39 32.514 114.478 32.514 113.49V102.47C32.514 101.482 32.7673 100.57 33.274 99.734C33.7807 98.898 34.452 98.2267 35.288 97.72C36.124 97.2133 37.036 96.96 38.024 96.96H49.348C50.3613 96.96 51.286 97.2133 52.122 97.72C52.958 98.2267 53.6167 98.898 54.098 99.734C54.6047 100.57 54.858 101.482 54.858 102.47V110.906H38.328V113.186H54.858V119H38.024ZM38.328 105.814H49.044V102.774H38.328V105.814ZM62.6477 119C61.6597 119 60.7477 118.747 59.9117 118.24C59.0757 117.733 58.4044 117.062 57.8977 116.226C57.391 115.39 57.1377 114.478 57.1377 113.49V89.702H62.9897V113.186H67.4357V119H62.6477ZM74.5384 119C73.5504 119 72.6384 118.747 71.8024 118.24C70.9664 117.733 70.2951 117.062 69.7884 116.226C69.2818 115.39 69.0284 114.478 69.0284 113.49V112.388H74.8424V113.186H85.5584V110.906H74.5384C73.5504 110.906 72.6384 110.653 71.8024 110.146C70.9664 109.639 70.2951 108.968 69.7884 108.132C69.2818 107.296 69.0284 106.384 69.0284 105.396V102.47C69.0284 101.482 69.2818 100.57 69.7884 99.734C70.2951 98.898 70.9664 98.2267 71.8024 97.72C72.6384 97.2133 73.5504 96.96 74.5384 96.96H85.8624C86.8758 96.96 87.8004 97.2133 88.6364 97.72C89.4724 98.2267 90.1438 98.898 90.6504 99.734C91.1571 100.57 91.4104 101.482 91.4104 102.47V103.572H85.5584V102.774H74.8424V105.054H85.8624C86.8758 105.054 87.8004 105.307 88.6364 105.814C89.4724 106.321 90.1438 106.992 90.6504 107.828C91.1571 108.664 91.4104 109.576 91.4104 110.564V113.49C91.4104 114.478 91.1571 115.39 90.6504 116.226C90.1438 117.062 89.4724 117.733 88.6364 118.24C87.8004 118.747 86.8758 119 85.8624 119H74.5384ZM94.4712 119V96.96H100.285V119H94.4712ZM94.4712 95.592V89.74H100.285V95.592H94.4712ZM107.943 119C106.929 119 106.005 118.747 105.169 118.24C104.333 117.733 103.661 117.062 103.155 116.226C102.673 115.39 102.433 114.478 102.433 113.49V96.96H108.247V113.186H118.963V96.96H124.777V113.49C124.777 114.478 124.523 115.39 124.017 116.226C123.535 117.062 122.877 117.733 122.041 118.24C121.205 118.747 120.28 119 119.267 119H107.943ZM132.561 119C131.573 119 130.661 118.747 129.825 118.24C128.989 117.733 128.318 117.062 127.811 116.226C127.305 115.39 127.051 114.478 127.051 113.49V112.388H132.865V113.186H143.581V110.906H132.561C131.573 110.906 130.661 110.653 129.825 110.146C128.989 109.639 128.318 108.968 127.811 108.132C127.305 107.296 127.051 106.384 127.051 105.396V102.47C127.051 101.482 127.305 100.57 127.811 99.734C128.318 98.898 128.989 98.2267 129.825 97.72C130.661 97.2133 131.573 96.96 132.561 96.96H143.885C144.899 96.96 145.823 97.2133 146.659 97.72C147.495 98.2267 148.167 98.898 148.673 99.734C149.18 100.57 149.433 101.482 149.433 102.47V103.572H143.581V102.774H132.865V105.054H143.885C144.899 105.054 145.823 105.307 146.659 105.814C147.495 106.321 148.167 106.992 148.673 107.828C149.18 108.664 149.433 109.576 149.433 110.564V113.49C149.433 114.478 149.18 115.39 148.673 116.226C148.167 117.062 147.495 117.733 146.659 118.24C145.823 118.747 144.899 119 143.885 119H132.561Z" fill="white"/>
</svg>
